<?xml version="1.0" standalone="no"?>
<!DOCTYPE svg PUBLIC "-//W3C//DTD SVG 20010904//EN"
 "http://www.w3.org/TR/2001/REC-SVG-20010904/DTD/svg10.dtd">
<svg version="1.0" xmlns="http://www.w3.org/2000/svg"
 width="1280.000000pt" height="1280.000000pt" viewBox="0 0 1280.000000 1280.000000"
 preserveAspectRatio="xMidYMid meet">
<metadata>
Created by potrace 1.14, written by Peter Selinger 2001-2017
</metadata>
<g transform="translate(0.000000,1280.000000) scale(0.100000,-0.100000)"
fill="#000000" stroke="none">
<path d="M6391 11793 c-5 -533 -9 -694 -14 -700 -4 -3 -2 -12 4 -20 6 -7 7
-13 2 -13 -5 0 -10 -7 -10 -15 0 -8 3 -15 7 -15 8 0 5 -49 -4 -57 -3 -3 -1
-14 5 -24 6 -12 6 -19 0 -19 -5 0 -9 -9 -8 -20 1 -11 5 -20 10 -20 4 0 5 -6 0
-12 -4 -7 -8 -96 -9 -198 -3 -363 -7 -505 -15 -521 -5 -9 -5 -19 -2 -23 10 -9
10 -126 0 -126 -4 0 -3 -8 2 -19 6 -10 8 -21 5 -23 -3 -3 -7 -121 -9 -263 -2
-141 -6 -260 -9 -262 -3 -3 -1 -13 4 -23 5 -10 7 -20 4 -23 -3 -3 -8 -124 -10
-269 -2 -145 -6 -326 -9 -403 -2 -77 -4 -176 -5 -220 -1 -103 -11 -116 -84
-120 -65 -2 -84 8 -91 50 -6 35 -23 119 -31 155 -3 14 -7 39 -8 55 -2 17 -6
37 -9 45 -7 19 -16 65 -22 110 -6 52 -12 86 -19 107 -7 22 -17 78 -21 118 -2
17 -8 48 -13 70 -6 22 -13 60 -16 85 -3 25 -8 56 -11 70 -15 63 -17 73 -28
155 -2 17 -8 41 -12 54 -4 13 -9 40 -10 60 -2 20 -4 36 -5 36 -1 0 -3 11 -4
25 0 14 -4 30 -8 36 -5 7 -10 29 -12 50 -3 22 -8 53 -11 69 -2 17 -7 41 -9 55
-3 14 -5 25 -6 25 -2 0 -10 51 -13 85 -2 14 -6 31 -10 38 -5 6 -6 12 -4 12 3
0 1 17 -4 38 -5 20 -11 53 -14 72 -11 77 -15 103 -20 110 -2 4 -7 22 -9 41 -7
49 -17 110 -22 139 -10 48 -24 125 -30 170 -3 25 -8 48 -10 52 -3 4 -7 24 -10
45 -3 21 -8 52 -11 68 -3 17 -7 47 -10 67 -3 23 -9 35 -16 31 -6 -4 -7 -1 -1
8 11 19 14 39 5 39 -5 0 -7 12 -6 28 2 30 -14 72 -26 72 -5 0 -5 -10 0 -23 5
-12 12 -52 15 -87 3 -36 8 -78 11 -95 2 -16 7 -49 10 -73 2 -24 8 -48 11 -54
4 -6 8 -39 9 -72 0 -34 4 -66 7 -71 3 -6 4 -20 3 -32 -1 -13 1 -23 5 -23 3 0
6 -8 7 -17 1 -10 4 -43 7 -73 10 -112 18 -175 25 -190 3 -8 6 -32 6 -52 0 -21
3 -38 7 -38 4 0 5 -7 2 -15 -4 -8 -1 -22 6 -30 9 -11 10 -15 1 -15 -7 0 -10
-8 -7 -17 9 -27 31 -173 40 -258 7 -73 18 -143 32 -212 1 -7 -3 -13 -9 -13 -8
0 -8 -3 -2 -8 6 -4 11 -16 12 -27 6 -51 14 -103 19 -129 4 -16 8 -52 9 -80 2
-28 4 -51 5 -51 1 0 4 -20 6 -45 2 -25 7 -52 10 -60 4 -8 8 -37 10 -65 8 -105
11 -131 18 -147 4 -9 9 -38 11 -65 2 -26 4 -48 5 -48 1 0 3 -24 5 -54 2 -30 7
-68 11 -85 9 -37 11 -58 19 -151 5 -69 5 -71 -22 -86 -16 -9 -40 -15 -55 -14
-16 1 -28 -2 -28 -7 0 -14 -58 23 -64 41 -3 9 -24 68 -46 131 -23 63 -44 127
-47 143 -3 15 -9 27 -14 27 -5 0 -8 3 -7 8 2 12 -14 66 -25 80 -5 6 -6 12 -2
12 4 0 2 6 -4 14 -6 7 -12 25 -13 40 -1 14 -6 26 -11 26 -4 0 -6 4 -2 9 3 5 1
12 -4 15 -5 3 -12 18 -15 33 -8 32 -71 211 -92 263 -9 20 -16 42 -18 50 -2 8
-6 23 -10 32 -4 9 -9 22 -10 30 -3 14 -12 39 -26 73 -5 11 -11 29 -14 40 -2
11 -16 52 -31 90 -14 39 -35 97 -46 130 -11 33 -22 67 -25 75 -3 8 -5 16 -4
18 0 1 -7 16 -15 32 -9 17 -13 30 -9 30 4 0 1 7 -6 15 -7 8 -10 15 -7 15 3 0
0 12 -8 27 -8 15 -12 30 -9 35 3 4 0 8 -7 8 -7 0 -10 3 -6 6 3 4 0 19 -9 35
-8 16 -14 31 -14 34 0 3 0 6 -1 8 0 1 -2 9 -4 17 -7 31 -47 135 -56 146 -5 6
-6 14 -2 17 3 4 0 13 -6 21 -7 8 -10 20 -6 26 3 5 1 10 -6 10 -7 0 -9 3 -6 7
4 3 2 11 -3 18 -5 6 -11 21 -13 33 -2 12 -6 25 -10 28 -4 4 -7 16 -7 26 0 10
-5 18 -11 18 -5 0 -8 4 -4 9 3 5 1 12 -4 16 -5 3 -9 13 -9 23 0 9 -5 31 -12
47 -7 17 -15 39 -17 50 -2 10 -8 22 -13 25 -5 3 -10 20 -12 38 -1 18 -6 32
-10 32 -4 0 -8 7 -8 15 0 8 -4 23 -9 33 -15 30 -44 116 -44 135 -1 9 -5 17 -9
17 -7 0 -24 69 -20 83 1 5 -2 6 -8 2 -5 -3 -10 2 -10 12 0 11 -5 24 -12 31 -7
7 -8 12 -4 12 5 0 3 7 -4 15 -7 8 -10 15 -7 15 3 0 -6 30 -20 68 -13 37 -26
72 -27 78 -1 7 -8 20 -16 30 -13 16 -13 17 0 9 12 -7 13 -6 4 6 -7 8 -18 34
-25 59 -7 25 -16 50 -20 55 -4 6 -10 22 -13 35 -2 14 -23 75 -44 137 -22 61
-38 114 -34 117 3 3 1 6 -5 6 -8 0 -26 53 -21 63 1 1 -5 13 -12 27 -15 26 -20
45 -22 70 -1 8 -13 26 -26 40 -14 14 -20 18 -14 9 7 -9 9 -19 5 -22 -3 -4 -2
-7 4 -7 10 0 28 -61 26 -87 0 -7 3 -13 8 -13 5 0 9 -9 9 -19 0 -11 5 -23 10
-26 6 -4 8 -10 6 -14 -3 -4 6 -37 19 -73 13 -36 21 -69 18 -72 -4 -3 -1 -6 5
-6 7 0 12 -11 12 -25 0 -14 3 -25 8 -25 4 0 8 -12 9 -26 0 -15 6 -36 11 -48
11 -21 25 -73 26 -91 1 -5 5 -13 9 -16 4 -3 10 -19 13 -35 3 -16 17 -69 33
-119 56 -180 65 -210 63 -217 -1 -5 2 -8 7 -8 5 0 8 -8 6 -17 -1 -10 1 -22 5
-28 6 -8 49 -139 55 -165 2 -9 37 -125 43 -140 3 -8 6 -19 8 -25 1 -5 7 -24
12 -42 6 -17 8 -34 4 -37 -3 -3 0 -6 6 -6 7 0 11 -3 11 -7 -1 -5 0 -10 1 -13
1 -3 3 -12 5 -20 4 -23 45 -151 58 -185 7 -16 11 -33 10 -37 -2 -4 4 -22 11
-40 7 -18 11 -39 9 -45 -3 -7 0 -13 6 -13 8 0 21 -41 26 -80 0 -3 5 -18 12
-35 6 -16 21 -64 33 -105 12 -41 26 -86 31 -100 5 -14 12 -36 15 -50 3 -14 6
-29 7 -35 2 -5 6 -16 10 -22 8 -12 15 -39 21 -73 1 -8 5 -22 8 -30 22 -54 38
-121 32 -131 -4 -7 -3 -9 3 -6 6 4 14 -7 18 -26 12 -49 11 -49 29 -100 9 -27
14 -53 11 -58 -4 -5 -2 -9 3 -9 8 0 17 -29 22 -65 1 -3 8 -24 16 -47 9 -24 17
-50 19 -58 2 -8 8 -28 15 -45 6 -16 11 -31 11 -32 -1 -5 5 -27 22 -78 8 -27
19 -67 22 -88 4 -20 11 -40 16 -43 5 -3 7 -10 4 -15 -4 -5 -1 -9 5 -9 6 0 10
-6 9 -12 -4 -20 12 -88 20 -88 4 0 8 -6 8 -12 1 -23 11 -62 27 -105 8 -24 13
-43 11 -43 -3 0 0 -12 5 -26 12 -31 2 -43 -56 -66 -82 -33 -116 -12 -180 113
-21 41 -43 77 -48 81 -6 4 -8 8 -3 8 4 0 -4 18 -17 39 -14 21 -22 42 -19 45 4
3 2 6 -4 6 -5 0 -20 23 -33 50 -13 28 -28 50 -33 50 -6 0 -8 3 -4 6 6 6 -35
89 -54 108 -5 6 -9 18 -9 27 0 10 -4 19 -8 21 -8 3 -43 65 -130 228 -19 36
-39 71 -44 78 -6 6 -7 12 -2 12 5 0 4 4 -3 8 -6 4 -13 14 -15 22 -2 8 -11 23
-20 34 -10 10 -15 23 -12 28 3 4 0 8 -5 8 -6 0 -11 6 -11 14 0 7 -7 19 -15 26
-9 7 -13 15 -11 18 3 2 -5 21 -17 41 -13 20 -34 59 -47 86 -14 28 -27 52 -30
55 -6 5 -38 64 -87 160 -15 30 -31 57 -34 60 -3 3 -12 20 -20 38 -8 17 -17 32
-21 32 -3 0 -9 14 -13 30 -4 17 -10 30 -15 30 -4 0 -10 8 -13 18 -7 20 -84
161 -97 178 -6 6 -7 14 -3 17 3 4 1 7 -5 7 -7 0 -12 6 -12 14 0 8 -7 21 -15
30 -9 8 -16 18 -16 20 0 18 -22 66 -30 66 -5 0 -9 8 -9 19 0 10 -7 24 -15 31
-8 7 -12 16 -9 21 3 5 1 9 -5 9 -6 0 -14 12 -17 27 -4 15 -15 36 -25 47 -10
10 -16 22 -14 26 3 4 -2 13 -10 20 -8 7 -15 18 -15 24 0 7 -6 21 -14 32 -30
39 -10 -13 58 -151 38 -77 73 -143 80 -147 6 -4 7 -8 2 -8 -4 0 -1 -11 8 -25
9 -13 16 -31 16 -40 0 -8 5 -15 10 -15 6 0 10 -4 10 -9 0 -9 41 -98 162 -350
27 -57 54 -115 59 -128 4 -12 13 -23 18 -23 6 0 8 -7 5 -15 -4 -8 -1 -15 5
-15 6 0 10 -3 9 -7 -2 -5 22 -57 52 -118 30 -60 55 -112 55 -115 1 -3 34 -72
74 -155 112 -229 161 -334 161 -345 0 -6 5 -10 10 -10 6 0 10 -4 10 -10 0 -5
19 -49 42 -97 23 -49 40 -90 39 -92 -2 -2 2 -7 9 -11 6 -4 12 -13 14 -21 1 -8
28 -67 59 -131 32 -65 58 -121 58 -125 0 -5 5 -14 11 -21 6 -7 8 -15 5 -19 -4
-3 -1 -13 6 -21 8 -11 8 -14 0 -9 -6 4 -13 3 -15 -3 -2 -6 -13 -12 -25 -14
-12 -3 -31 -10 -43 -16 -12 -6 -31 -13 -43 -16 -25 -5 -77 14 -77 27 0 9 -21
38 -52 71 -10 10 -15 18 -10 18 4 0 2 4 -4 8 -6 4 -30 34 -55 66 -79 105 -84
111 -91 114 -5 2 -8 9 -8 15 0 7 -14 25 -30 41 -16 16 -27 33 -24 37 3 5 -2 9
-11 9 -9 0 -13 5 -10 10 3 6 1 10 -6 10 -7 0 -10 3 -7 6 3 3 -4 16 -16 28 -29
32 -79 95 -90 115 -5 9 -12 18 -15 21 -4 3 -40 50 -81 105 -41 55 -78 102 -82
103 -5 2 -8 8 -8 13 0 5 -8 17 -17 27 -10 11 -27 32 -38 48 -11 15 -32 42 -47
60 -16 17 -28 35 -28 38 0 4 -11 19 -25 34 -14 15 -25 30 -25 35 0 4 -13 22
-30 40 -16 18 -30 38 -30 45 0 7 -4 11 -8 8 -5 -3 -17 9 -27 27 -21 37 -86
120 -97 125 -5 2 -8 9 -8 14 0 6 -7 18 -15 27 -9 9 -34 41 -57 71 -24 30 -47
58 -53 62 -6 5 -6 8 0 8 6 0 6 3 0 8 -6 4 -26 27 -45 52 -19 25 -38 47 -42 48
-5 2 -8 10 -8 17 0 7 -4 15 -8 17 -5 2 -28 30 -53 63 -24 33 -52 69 -61 79
-10 11 -18 23 -18 28 0 4 -13 21 -29 37 -16 17 -32 39 -36 50 -3 12 -13 21
-21 21 -8 0 -14 6 -14 13 0 6 -10 24 -23 39 -12 14 -30 36 -39 47 -10 12 -18
26 -18 31 0 6 -3 10 -7 10 -5 0 -19 17 -33 38 -14 20 -29 42 -35 48 -5 6 -21
26 -35 44 -14 19 -35 46 -47 61 -13 15 -23 32 -23 39 0 6 -4 8 -10 5 -5 -3
-10 1 -10 9 0 9 -4 16 -10 16 -5 0 -10 4 -10 10 0 5 -8 19 -17 31 -39 46 -49
58 -63 79 -8 12 -21 28 -27 36 -7 7 -13 15 -13 18 0 5 -8 15 -52 68 -10 11
-20 29 -23 39 -4 11 -13 19 -20 19 -23 0 -25 -15 -4 -30 10 -8 19 -18 19 -22
0 -4 20 -34 45 -67 25 -32 45 -64 45 -69 0 -6 4 -12 8 -14 13 -5 102 -134 102
-147 0 -7 5 -9 10 -6 6 3 10 -1 10 -9 0 -9 5 -16 10 -16 6 0 10 -5 10 -10 0
-6 9 -20 20 -32 10 -12 17 -25 14 -30 -3 -4 2 -8 10 -8 9 0 15 -3 14 -7 -3 -9
53 -96 65 -101 4 -2 7 -8 7 -14 0 -6 10 -19 22 -29 11 -11 17 -19 12 -19 -5 0
-4 -4 2 -8 5 -4 30 -36 55 -72 24 -36 46 -67 49 -70 17 -17 90 -130 90 -140 0
-6 4 -9 8 -6 4 3 19 -15 32 -40 14 -24 27 -44 30 -44 3 0 14 -15 25 -32 10
-18 23 -37 27 -43 4 -5 19 -24 33 -41 14 -18 25 -36 25 -42 0 -6 4 -12 8 -14
5 -1 28 -32 52 -68 24 -36 47 -66 52 -68 4 -2 8 -10 8 -18 0 -8 7 -17 15 -20
8 -4 12 -10 9 -15 -3 -5 -1 -9 3 -9 5 0 17 -15 27 -32 11 -18 28 -43 39 -55
11 -13 17 -23 12 -23 -4 0 2 -8 13 -19 12 -10 22 -25 22 -32 0 -8 9 -20 21
-27 12 -7 19 -16 16 -19 -3 -2 2 -12 11 -22 27 -28 86 -115 84 -124 -1 -4 5
-10 13 -13 8 -4 15 -12 15 -20 0 -8 5 -14 10 -14 6 0 10 -7 10 -15 0 -8 5 -15
10 -15 6 0 10 -6 10 -14 0 -8 4 -16 8 -18 4 -1 28 -32 52 -68 25 -36 50 -68
55 -72 6 -4 6 -8 2 -8 -4 0 4 -12 18 -27 14 -15 25 -31 25 -35 0 -3 12 -20 26
-37 14 -17 23 -31 20 -31 -5 0 9 -20 39 -54 6 -6 16 -23 24 -38 8 -16 18 -28
23 -28 4 0 8 -7 8 -15 0 -8 5 -15 10 -15 6 0 10 -6 10 -13 0 -8 9 -22 20 -32
11 -10 20 -24 20 -31 0 -7 4 -14 8 -16 4 -1 37 -46 72 -98 36 -52 67 -97 70
-100 17 -16 52 -74 55 -92 5 -25 -13 -52 -37 -56 -10 -2 -41 -14 -70 -27 -34
-16 -56 -21 -63 -15 -7 6 -14 7 -17 5 -3 -3 -36 24 -73 60 -37 36 -69 65 -70
65 -1 0 -50 46 -108 103 -58 56 -174 167 -258 247 -83 80 -189 181 -235 226
-46 44 -84 79 -84 78 0 -1 -38 36 -85 82 -47 46 -86 84 -88 84 -1 0 -47 43
-101 95 -54 52 -102 95 -107 95 -5 0 -9 7 -9 15 0 8 -4 15 -10 15 -5 0 -73 63
-152 140 -78 77 -144 140 -146 140 -2 0 -34 32 -71 70 -62 66 -88 85 -79 59 2
-6 7 -10 11 -9 4 0 25 -21 46 -47 21 -26 61 -69 90 -95 28 -26 51 -53 51 -60
0 -6 3 -9 6 -6 3 3 26 -17 52 -45 26 -28 77 -82 115 -120 37 -37 67 -70 67
-72 0 -2 45 -49 100 -105 55 -57 100 -107 100 -112 0 -5 5 -6 10 -3 6 3 10 2
10 -4 0 -5 41 -51 90 -101 50 -50 90 -96 90 -101 0 -6 5 -7 10 -4 6 3 10 2 10
-3 0 -4 34 -44 75 -87 41 -43 75 -82 75 -87 0 -4 4 -8 10 -8 9 0 60 -47 60
-55 0 -2 35 -40 78 -83 69 -72 200 -210 356 -377 52 -55 65 -84 37 -78 -6 2
-11 -1 -11 -5 0 -10 -50 -37 -62 -34 -5 1 -8 -3 -8 -8 0 -6 -7 -10 -15 -10 -8
0 -15 -4 -15 -8 0 -12 -63 -32 -88 -27 -24 4 -71 36 -72 48 0 5 -4 5 -10 2 -5
-3 -10 -1 -10 5 0 6 -4 8 -10 5 -5 -3 -10 -2 -10 3 0 5 -33 31 -72 57 -40 26
-74 52 -76 57 -2 4 -10 8 -17 8 -7 0 -16 7 -19 16 -3 8 -10 12 -16 9 -5 -3
-10 -1 -10 4 0 6 -6 11 -14 11 -8 0 -16 4 -18 8 -1 4 -41 34 -88 66 -47 33
-86 63 -88 67 -2 5 -9 9 -16 9 -7 0 -25 11 -40 25 -14 13 -30 25 -34 25 -4 0
-16 8 -27 18 -11 9 -33 23 -48 31 -15 8 -27 18 -27 23 0 4 -6 8 -13 8 -7 0
-27 13 -44 29 -18 16 -34 27 -36 25 -2 -3 -10 2 -17 11 -7 8 -19 15 -27 15 -8
0 -11 5 -8 10 3 6 2 10 -4 10 -17 0 -81 47 -73 55 4 3 2 5 -3 4 -11 -4 -53 18
-71 36 -7 6 -35 26 -63 44 -28 18 -51 37 -51 42 0 5 -3 8 -7 7 -8 -3 -135 84
-161 109 -7 7 -20 13 -28 13 -8 0 -17 7 -20 15 -4 8 -12 15 -19 15 -7 0 -20
10 -29 23 -9 12 -14 16 -10 9 3 -8 -14 1 -38 20 -25 18 -55 40 -68 48 -12 8
-28 21 -36 28 -7 6 -17 12 -22 12 -5 0 -17 9 -27 20 -10 11 -21 17 -25 15 -4
-3 -10 2 -14 10 -3 8 -10 15 -16 15 -5 0 -19 8 -29 18 -36 31 -50 42 -59 42
-5 0 -17 9 -27 20 -10 11 -24 20 -32 20 -7 0 -13 5 -13 11 0 5 -4 7 -10 4 -6
-3 -10 -1 -10 5 0 6 -8 14 -17 17 -10 4 -26 15 -35 25 -9 11 -19 18 -21 16 -3
-2 -16 6 -29 17 -13 11 -36 26 -51 34 -15 8 -27 18 -27 23 0 5 -4 6 -10 3 -5
-3 -10 -2 -10 4 0 5 -18 20 -40 32 -22 13 -40 27 -40 31 0 5 -4 7 -8 4 -5 -3
-15 4 -22 15 -8 10 -18 19 -23 19 -10 0 -144 92 -172 118 -11 10 -23 18 -27
18 -3 -1 -18 9 -32 22 -15 12 -29 22 -31 22 -3 0 -11 4 -18 10 -59 48 -107 78
-113 69 -3 -6 -4 -12 -3 -13 2 -2 27 -18 54 -36 28 -18 62 -44 78 -58 15 -14
27 -22 27 -17 0 5 7 -1 16 -13 8 -12 21 -22 27 -22 7 0 25 -14 41 -30 16 -17
33 -30 38 -30 7 0 29 -16 62 -45 6 -6 45 -35 86 -65 41 -30 82 -62 91 -72 9
-10 19 -15 22 -12 3 3 12 -3 19 -15 7 -12 19 -21 26 -21 7 0 15 -7 18 -15 4
-8 12 -15 20 -15 8 0 14 -3 14 -7 0 -5 20 -21 45 -36 25 -16 45 -34 45 -40 0
-5 3 -7 6 -4 4 4 15 -3 25 -15 11 -11 19 -18 19 -14 0 4 11 -5 25 -19 14 -14
30 -25 34 -25 4 0 19 -10 33 -22 36 -32 59 -51 89 -70 14 -9 32 -23 40 -30 8
-8 35 -29 62 -47 26 -18 56 -42 67 -53 11 -12 20 -18 20 -12 0 5 4 4 8 -2 4
-5 25 -23 47 -40 22 -16 46 -34 55 -41 8 -7 51 -39 95 -72 44 -34 85 -64 90
-69 6 -4 26 -19 45 -32 19 -14 37 -27 40 -30 3 -3 52 -42 110 -85 58 -44 107
-83 108 -87 2 -5 10 -8 17 -8 8 0 18 -6 22 -13 4 -6 27 -25 51 -41 24 -16 47
-36 52 -45 5 -9 10 -14 12 -11 2 4 70 -42 88 -60 3 -3 50 -39 105 -80 55 -41
102 -78 103 -82 2 -5 8 -8 13 -8 8 0 27 -14 63 -45 6 -5 38 -30 71 -55 53 -40
95 -78 95 -86 0 -2 -15 -10 -34 -19 -18 -9 -43 -25 -54 -35 -12 -11 -24 -20
-28 -20 -3 0 -19 -10 -36 -21 -16 -12 -45 -29 -65 -39 -34 -16 -36 -16 -91 11
-136 65 -232 109 -241 109 -5 0 -14 7 -21 15 -7 9 -15 13 -17 11 -3 -3 -24 6
-46 19 -23 12 -46 24 -52 25 -36 9 -65 23 -65 32 0 6 -7 8 -15 4 -8 -3 -19 2
-24 12 -6 9 -11 14 -11 9 0 -4 -27 6 -60 23 -33 17 -60 28 -60 24 0 -3 -7 2
-16 10 -8 9 -24 16 -35 16 -10 0 -19 4 -19 9 0 8 -21 17 -58 26 -8 2 -23 12
-34 22 -11 10 -23 17 -27 16 -10 -4 -41 8 -41 16 0 4 -10 8 -22 8 -13 1 -24 7
-26 13 -2 5 -8 10 -13 10 -5 0 -36 13 -70 30 -34 16 -66 27 -70 24 -5 -3 -9 1
-9 8 0 8 -9 14 -21 15 -11 1 -27 8 -36 15 -8 6 -20 13 -27 14 -6 1 -45 18 -86
38 -41 20 -79 36 -83 36 -5 0 -15 7 -24 15 -8 8 -19 13 -24 10 -5 -4 -9 -1 -9
5 0 6 -5 8 -10 5 -5 -3 -10 -2 -10 3 0 10 -38 25 -54 23 -5 -1 -12 2 -15 7 -6
8 -176 93 -186 93 -3 -1 -21 8 -40 19 -19 11 -35 16 -35 11 0 -7 18 -19 40
-26 22 -7 60 -30 60 -36 0 -5 6 -6 14 -3 8 3 17 1 21 -5 3 -6 25 -20 48 -32
23 -11 58 -29 77 -39 19 -10 38 -16 41 -14 4 2 10 -3 13 -12 3 -8 10 -12 16
-9 5 3 10 2 10 -3 0 -4 16 -14 35 -22 19 -8 35 -18 35 -22 0 -5 5 -6 10 -3 6
3 10 1 10 -4 0 -6 3 -10 8 -9 7 2 83 -33 92 -42 3 -3 19 -12 35 -20 17 -8 32
-17 35 -21 8 -8 74 -34 83 -31 4 1 7 -2 7 -6 0 -5 26 -22 58 -38 31 -16 64
-34 72 -41 8 -6 22 -13 30 -15 8 -2 30 -13 49 -25 19 -12 38 -20 43 -17 4 3 8
1 8 -4 0 -5 18 -17 40 -27 22 -10 40 -22 40 -27 0 -4 3 -8 8 -7 15 2 52 -14
52 -23 0 -5 4 -7 9 -4 5 3 20 -4 35 -15 14 -11 26 -18 26 -14 0 3 12 -2 28
-12 15 -10 50 -29 77 -43 28 -14 53 -29 56 -33 3 -5 9 -8 13 -8 10 2 70 -31
77 -41 3 -5 10 -9 15 -9 12 2 75 -30 92 -47 8 -7 18 -10 23 -7 5 4 9 1 9 -4 0
-6 6 -11 14 -11 8 0 16 -3 18 -7 1 -5 21 -18 43 -30 44 -24 56 -48 28 -57 -10
-4 -36 -22 -58 -42 -22 -19 -61 -49 -87 -66 -27 -17 -48 -35 -48 -40 0 -4 -3
-7 -7 -6 -5 1 -17 -3 -29 -9 -25 -15 -78 -9 -157 17 -33 11 -68 20 -77 20 -9
0 -20 3 -24 7 -4 5 -12 9 -17 9 -5 1 -10 2 -11 4 -2 1 -11 3 -20 6 -41 10
-125 33 -148 42 -19 6 -36 11 -55 15 -8 2 -18 6 -21 10 -4 4 -17 7 -29 7 -12
0 -25 3 -29 7 -3 4 -12 8 -19 10 -59 13 -103 26 -114 36 -7 5 -13 7 -13 4 0
-3 -24 2 -54 13 -30 10 -57 16 -60 13 -3 -4 -6 -1 -6 6 0 7 -3 10 -8 7 -4 -2
-30 4 -57 13 -28 10 -56 16 -62 14 -7 -3 -13 1 -13 8 0 7 -3 10 -6 6 -4 -3
-23 0 -43 7 -42 16 -142 46 -153 47 -4 0 -27 7 -50 15 -24 9 -50 17 -58 19 -8
2 -27 8 -42 14 -16 6 -28 8 -28 5 0 -4 -6 -2 -13 4 -7 6 -24 12 -37 14 -14 2
-29 6 -35 10 -8 4 -64 20 -85 23 -3 0 -11 4 -18 8 -6 5 -12 6 -12 3 0 -3 -15
1 -34 9 -18 8 -36 11 -40 8 -3 -4 -6 0 -6 7 0 7 -3 11 -6 7 -3 -3 -18 -1 -33
5 -14 5 -51 16 -81 24 -30 8 -62 17 -70 21 -8 3 -21 8 -27 10 -7 1 -19 5 -25
6 -7 2 -20 7 -28 10 -8 4 -26 8 -40 11 -14 2 -38 9 -55 16 -16 6 -32 12 -35
12 -7 1 -19 4 -85 24 -57 17 -69 21 -97 27 -7 1 -19 6 -26 11 -7 4 -23 9 -35
11 -41 5 -77 17 -77 25 0 5 -8 8 -17 8 -16 -1 -71 13 -113 29 -8 3 -26 8 -39
10 -13 2 -36 10 -50 17 -14 7 -32 11 -38 9 -7 -3 -13 0 -13 7 0 6 -6 10 -12 8
-7 -1 -23 3 -35 10 -13 7 -23 9 -23 5 0 -4 -5 -1 -10 7 -8 13 -10 12 -10 -2 0
-16 11 -23 33 -19 4 0 7 -4 7 -9 0 -5 3 -9 8 -8 9 2 64 -13 77 -21 6 -3 12 -6
15 -7 29 -5 67 -19 78 -27 6 -5 12 -6 12 -2 0 4 6 2 13 -4 8 -6 17 -8 20 -4 4
3 15 -1 25 -10 10 -10 21 -14 25 -11 3 3 12 2 19 -2 7 -5 18 -10 23 -11 6 -1
37 -12 70 -23 33 -12 68 -22 77 -23 10 -1 18 -4 18 -8 0 -4 15 -10 33 -14 30
-7 36 -9 55 -15 4 -1 10 -2 15 -1 4 0 7 -4 7 -10 0 -6 6 -9 13 -6 6 2 24 -2
39 -9 15 -8 35 -16 45 -17 10 -2 30 -9 44 -15 15 -6 45 -16 68 -22 22 -6 41
-15 41 -19 0 -5 9 -7 20 -4 11 3 20 1 20 -4 0 -5 6 -10 13 -10 13 0 130 -38
162 -53 32 -14 99 -34 107 -32 5 1 8 -3 8 -10 0 -6 3 -9 6 -6 3 4 35 -4 70
-17 36 -13 66 -23 67 -24 1 0 16 -5 32 -11 17 -7 37 -13 46 -15 8 -2 32 -10
53 -19 21 -9 42 -13 47 -10 5 3 9 0 9 -6 0 -6 4 -9 9 -5 5 3 12 1 16 -5 3 -5
17 -10 31 -10 13 0 24 -4 24 -10 0 -5 3 -9 8 -8 4 1 45 -11 92 -27 47 -16 90
-30 95 -31 6 -2 30 -10 55 -19 25 -9 54 -19 64 -21 11 -2 23 -9 26 -15 4 -6 9
-9 11 -7 8 6 109 -26 109 -34 0 -5 4 -7 8 -4 5 3 21 -2 36 -10 16 -7 39 -14
52 -14 13 0 24 -4 24 -10 0 -5 10 -10 23 -10 13 0 27 -3 31 -7 4 -5 11 -8 14
-8 4 -1 39 -12 77 -25 39 -13 73 -23 78 -22 4 1 7 -2 7 -8 0 -5 7 -7 15 -4 8
4 15 2 15 -3 0 -5 7 -10 15 -11 8 -1 22 -3 30 -4 8 -1 15 -5 15 -10 0 -5 4 -6
10 -3 6 3 10 1 10 -5 0 -6 4 -9 9 -6 4 3 16 -1 26 -8 17 -12 15 -17 -32 -62
-95 -92 -197 -184 -205 -184 -4 0 -8 -6 -8 -13 0 -21 -71 -45 -120 -40 -25 2
-63 6 -85 8 -22 1 -40 4 -40 5 0 3 -28 7 -86 14 -30 4 -70 9 -89 12 -19 3 -48
7 -65 8 -28 3 -96 12 -154 21 -13 2 -26 7 -29 9 -3 3 -11 1 -19 -5 -7 -6 -13
-7 -13 -3 0 5 -15 10 -32 10 -18 1 -46 4 -63 8 -32 7 -62 11 -160 20 -71 7
-87 10 -100 17 -5 2 -29 4 -53 4 -23 0 -42 3 -42 6 0 4 -10 5 -23 5 -12 -1
-32 1 -44 6 -17 5 -23 4 -23 -6 0 -12 33 -22 90 -27 8 -1 21 -6 28 -12 8 -6
12 -6 12 1 0 6 6 9 13 7 6 -2 23 -6 37 -9 14 -2 43 -9 65 -15 22 -5 59 -12 82
-13 24 -2 43 -5 43 -8 0 -3 10 -6 23 -7 21 -1 45 -5 112 -17 17 -3 46 -8 65
-11 19 -3 39 -10 44 -15 5 -5 17 -5 28 1 10 5 18 6 18 1 0 -4 19 -9 42 -11 22
-1 50 -7 60 -12 10 -6 26 -9 36 -8 9 2 26 0 38 -4 18 -6 77 -16 122 -19 6 -1
12 -4 12 -7 0 -6 24 -9 88 -12 17 -1 32 -6 32 -11 0 -5 5 -6 11 -2 23 14 -10
-32 -55 -76 -25 -25 -46 -48 -46 -51 0 -3 -33 -39 -72 -80 -40 -42 -94 -99
-120 -128 -46 -51 -116 -89 -139 -76 -5 4 -9 3 -9 -2 0 -4 -231 -8 -513 -8
-281 0 -516 -2 -521 -4 -8 -4 -333 -13 -376 -11 -33 2 -85 -1 -107 -4 -13 -3
-23 0 -23 5 0 6 -6 7 -17 1 -9 -5 -29 -6 -44 -2 -17 5 -31 4 -38 -3 -8 -8 -11
-8 -11 2 0 7 -5 9 -13 4 -11 -7 -40 -9 -189 -12 -27 -1 -48 -5 -48 -10 0 -5
82 -9 183 -10 100 -1 197 -3 215 -4 17 -2 32 0 32 5 0 4 10 4 22 0 13 -4 85
-7 160 -7 76 0 138 -4 138 -8 0 -5 5 -5 11 -1 16 9 140 11 146 1 3 -4 10 -3
17 2 7 6 16 8 20 4 4 -4 69 -8 146 -9 77 -1 144 -5 150 -9 5 -3 10 -1 10 5 0
6 4 9 9 5 5 -3 100 -6 210 -8 128 -1 201 -5 201 -12 0 -7 3 -7 8 0 10 14 32
17 32 5 0 -6 9 -6 23 -1 12 5 32 5 45 0 13 -5 21 -5 18 -1 -6 10 65 9 81 -1 6
-4 14 -3 18 3 4 6 16 5 34 -5 16 -8 31 -11 35 -8 3 4 6 1 6 -6 0 -7 5 -9 10
-6 5 3 10 1 10 -5 0 -6 23 -33 50 -61 28 -28 50 -52 50 -54 0 -3 15 -19 33
-38 63 -65 146 -158 146 -163 0 -2 12 -16 27 -29 26 -24 27 -58 2 -54 -20 4
-98 -12 -98 -19 0 -4 -18 -7 -40 -6 -22 0 -40 -2 -40 -5 0 -6 -44 -12 -97 -15
-13 0 -23 -4 -23 -7 0 -3 -6 -6 -12 -7 -46 -5 -92 -12 -156 -25 -77 -16 -81
-16 -84 -18 -2 -1 -14 -2 -28 -4 -14 -1 -38 -5 -55 -9 -16 -3 -41 -8 -55 -11
-14 -3 -61 -12 -105 -21 -44 -9 -91 -18 -105 -19 -14 -1 -38 -5 -55 -9 -59
-13 -81 -17 -115 -22 -19 -2 -46 -7 -60 -10 -14 -3 -33 -6 -42 -7 -10 -1 -18
-5 -18 -10 0 -4 -4 -5 -10 -2 -5 3 -10 2 -10 -4 0 -5 12 -8 28 -6 15 2 27 4
27 5 0 6 103 22 230 36 36 4 64 8 105 16 8 2 21 8 29 12 9 6 12 5 8 -1 -6 -10
92 3 102 13 2 2 10 -1 18 -7 7 -6 13 -7 13 -2 0 5 6 10 13 10 19 1 108 12 147
18 19 3 53 8 75 10 38 4 80 12 80 15 0 1 20 3 45 5 88 8 125 13 150 19 31 7
84 14 173 22 76 6 88 0 182 -88 114 -105 150 -138 158 -138 4 0 7 -7 7 -15 0
-8 6 -15 14 -15 15 0 30 -39 15 -41 -19 -3 -25 -5 -46 -17 -13 -7 -23 -10 -23
-6 0 3 -6 1 -13 -5 -8 -6 -17 -8 -20 -4 -4 3 -7 0 -7 -7 0 -7 -3 -11 -6 -7 -3
3 -28 -3 -55 -13 -27 -11 -49 -17 -49 -14 0 4 -6 2 -12 -3 -10 -8 -168 -65
-188 -68 -3 0 -15 -6 -27 -13 -12 -7 -26 -11 -30 -11 -4 1 -21 -3 -38 -10 -16
-7 -38 -14 -47 -16 -9 -2 -25 -8 -36 -14 -11 -6 -22 -7 -26 -4 -3 3 -6 2 -6
-4 0 -5 -6 -10 -12 -10 -7 -1 -85 -26 -173 -58 -88 -31 -164 -58 -170 -59 -5
-2 -18 -6 -27 -10 -9 -4 -22 -9 -30 -10 -7 -1 -23 -8 -35 -14 -13 -7 -23 -11
-23 -8 0 2 -42 -12 -92 -31 -51 -19 -100 -36 -108 -38 -8 -2 -17 -4 -20 -5 -3
-1 -8 -2 -12 -1 -5 0 -8 -4 -8 -10 0 -5 -5 -7 -10 -4 -6 4 -16 2 -23 -3 -18
-14 -105 -41 -111 -34 -3 3 -6 0 -6 -7 0 -7 -4 -9 -10 -6 -5 3 -10 1 -10 -6 0
-7 -3 -10 -6 -6 -4 3 -29 -3 -58 -13 -28 -11 -58 -20 -68 -20 -9 0 -18 -4 -20
-9 -3 -9 -43 -21 -75 -23 -7 -1 -13 -6 -13 -11 0 -6 -3 -7 -6 -4 -4 3 -16 1
-28 -6 -11 -6 -25 -12 -31 -13 -11 -1 -38 -10 -75 -26 -14 -6 -36 -12 -50 -14
-14 -2 -26 -8 -28 -14 -2 -5 -7 -8 -12 -5 -4 3 -21 -2 -36 -10 -16 -8 -34 -15
-40 -15 -6 0 -29 -8 -50 -17 -40 -17 -57 -22 -86 -25 -10 -1 -18 -6 -18 -10 0
-4 -9 -8 -19 -8 -11 0 -23 -5 -26 -11 -4 -6 -13 -8 -21 -5 -8 3 -14 1 -14 -5
0 -6 -4 -8 -8 -5 -5 3 -21 -2 -36 -10 -16 -7 -37 -14 -47 -14 -11 0 -19 -6
-19 -12 0 -9 -3 -10 -8 -2 -5 8 -13 5 -27 -8 -20 -19 -20 -20 10 -12 17 4 32
10 35 13 3 3 12 7 20 8 47 7 55 8 60 13 6 6 139 50 160 53 8 2 21 6 27 10 7 5
13 6 13 2 0 -3 10 0 23 7 12 7 25 11 30 10 4 -1 23 4 41 12 19 8 37 12 40 8 3
-3 6 0 6 6 0 6 7 9 15 6 8 -4 15 -1 15 7 0 7 3 10 6 7 3 -4 20 -2 37 4 18 5
37 10 42 11 6 2 16 6 23 10 6 5 12 6 12 3 0 -3 26 4 57 15 32 11 66 21 78 23
11 2 34 10 50 17 17 7 33 12 37 11 4 -1 26 6 50 14 24 9 52 17 63 19 11 2 34
9 50 16 17 6 40 14 53 16 12 2 35 9 50 15 15 6 32 12 37 13 6 1 13 3 18 5 4 1
10 3 15 4 4 2 27 9 52 16 25 8 50 15 55 16 6 0 18 4 28 7 9 4 25 10 35 14 9 3
22 7 27 8 6 2 57 17 115 36 58 18 109 32 113 31 4 -1 22 5 39 14 17 9 40 18
52 19 41 7 56 11 62 18 4 4 18 7 31 7 12 0 23 4 23 9 0 6 9 8 20 6 11 -2 22 0
25 6 4 5 16 9 29 9 12 0 26 3 30 7 6 6 17 10 56 17 8 2 29 9 45 15 17 7 39 14
50 15 12 1 26 6 33 10 15 9 50 18 80 19 12 1 22 4 22 8 0 6 61 25 108 35 8 1
21 6 30 10 20 9 18 8 62 18 19 5 40 11 45 14 15 9 34 13 98 19 43 4 57 2 57
-7 0 -8 3 -10 6 -7 4 4 25 -8 48 -26 22 -17 50 -39 60 -47 10 -8 27 -23 38
-32 10 -10 18 -16 18 -14 0 3 16 -10 35 -28 19 -19 35 -36 35 -40 0 -3 -22
-17 -49 -31 -27 -13 -52 -29 -56 -34 -3 -6 -13 -7 -23 -4 -9 3 -14 3 -10 -2 4
-4 -17 -20 -47 -35 -30 -15 -61 -32 -68 -38 -8 -7 -17 -9 -20 -5 -4 3 -7 1 -7
-6 0 -7 -4 -10 -8 -7 -5 3 -19 -4 -30 -15 -12 -11 -22 -17 -22 -14 0 3 -10 -1
-22 -9 -27 -17 -176 -99 -228 -124 -19 -9 -37 -20 -40 -23 -3 -3 -20 -11 -38
-19 -19 -7 -39 -18 -46 -24 -6 -6 -32 -21 -56 -34 -58 -30 -275 -144 -320
-168 -19 -11 -36 -22 -38 -26 -2 -5 -12 -8 -22 -8 -10 0 -22 -5 -25 -10 -3 -6
-23 -18 -43 -28 -20 -11 -59 -31 -87 -47 -116 -64 -194 -103 -199 -97 -3 3 -6
0 -6 -6 0 -6 -10 -14 -22 -18 -22 -7 -48 -28 -48 -38 0 -3 11 0 25 6 14 6 25
15 25 21 0 5 7 7 15 3 8 -3 15 -2 15 2 0 9 60 36 78 35 6 -1 12 3 12 8 0 5 6
9 14 9 8 0 16 5 18 10 2 6 13 12 25 13 13 0 25 7 28 15 3 8 12 11 20 8 8 -3
15 -1 15 5 0 6 5 7 10 4 5 -3 10 -1 10 4 0 6 7 11 15 11 8 0 15 5 15 12 0 6 3
9 6 5 4 -3 37 10 75 29 38 19 69 32 69 28 0 -3 7 2 16 10 8 9 24 16 34 16 10
0 20 3 22 8 3 6 71 41 83 42 3 0 25 12 50 25 25 14 45 22 45 18 0 -4 4 -3 8 2
9 12 84 49 95 47 4 -1 7 2 7 8 0 6 3 9 8 8 4 -1 35 12 70 29 34 18 62 29 62
25 0 -4 4 -2 8 4 4 6 45 28 92 49 47 22 97 47 113 58 15 10 27 16 27 13 0 -4
40 14 89 38 49 25 91 42 95 39 3 -4 6 -1 6 5 0 10 26 22 57 28 7 1 20 9 29 18
8 9 23 16 32 16 9 0 30 9 46 19 17 11 33 18 38 15 4 -3 8 0 8 6 0 6 5 8 10 5
6 -3 10 -1 10 5 0 6 5 8 10 5 6 -3 10 -1 10 5 0 12 73 -16 78 -30 2 -6 8 -10
13 -10 4 0 36 -19 69 -42 33 -24 70 -48 81 -54 19 -11 19 -12 -13 -38 -18 -15
-42 -35 -53 -44 -11 -9 -23 -16 -27 -14 -5 1 -8 -2 -8 -6 0 -5 -21 -24 -47
-42 -27 -19 -51 -39 -55 -44 -4 -6 -8 -7 -8 -2 0 5 -8 -1 -19 -12 -10 -12 -23
-22 -29 -22 -6 0 -12 -4 -14 -8 -1 -5 -32 -31 -68 -58 -36 -26 -67 -51 -70
-54 -3 -3 -57 -44 -120 -90 -63 -47 -124 -93 -135 -104 -11 -10 -31 -25 -45
-34 -14 -9 -44 -32 -66 -50 -23 -19 -45 -34 -48 -33 -3 0 -14 -7 -24 -17 -19
-19 -204 -162 -230 -177 -9 -5 -19 -12 -22 -15 -3 -3 -30 -24 -60 -48 -30 -23
-59 -45 -65 -50 -5 -4 -28 -21 -50 -37 -22 -17 -42 -32 -45 -35 -3 -3 -59 -45
-125 -95 -66 -49 -124 -93 -130 -97 -5 -5 -28 -22 -50 -38 -22 -17 -50 -38
-61 -48 -12 -9 -34 -26 -49 -37 -16 -11 -34 -26 -42 -33 -7 -7 -13 -10 -13 -5
0 4 -6 1 -13 -7 -7 -9 -28 -27 -47 -40 -19 -13 -39 -30 -43 -37 -4 -7 -12 -13
-18 -13 -11 0 -31 -15 -57 -42 -9 -10 -21 -18 -27 -18 -5 0 -29 -18 -52 -40
-24 -21 -43 -37 -43 -34 0 5 -18 -9 -55 -44 -14 -13 -25 -20 -25 -16 0 4 -9
-2 -20 -14 -12 -12 -24 -22 -29 -22 -4 0 -19 -10 -33 -23 -13 -12 -35 -30 -49
-39 -13 -10 -43 -31 -66 -48 -24 -17 -43 -35 -43 -41 0 -5 -4 -8 -8 -5 -5 3
-25 -10 -45 -29 -21 -19 -37 -32 -37 -27 0 4 -4 2 -8 -4 -4 -6 -16 -16 -27
-23 l-20 -13 20 7 c11 4 26 8 33 8 6 0 12 4 12 7 0 4 31 29 70 55 38 26 70 51
70 56 0 5 5 9 12 9 9 0 113 72 128 89 3 4 22 15 43 26 20 11 37 23 37 27 0 4
17 16 37 27 21 11 50 31 65 45 15 14 31 26 36 26 4 0 18 9 30 20 12 12 22 18
22 15 0 -6 15 6 50 37 10 9 21 14 24 11 3 -4 6 -1 6 6 0 7 5 9 10 6 6 -3 10
-2 10 3 0 5 46 40 103 78 116 78 121 82 147 108 11 11 20 17 20 13 0 -6 141
92 177 123 7 5 17 10 23 10 5 0 10 3 10 8 1 4 25 23 55 42 30 19 55 39 55 43
0 5 5 5 10 2 6 -3 10 -2 10 2 0 5 18 19 40 33 22 14 40 28 40 32 0 5 5 8 10 8
12 0 73 41 78 53 2 4 9 7 16 7 7 0 21 8 32 18 31 28 123 92 133 92 5 0 12 7
15 16 3 8 10 12 16 9 5 -3 10 -3 10 2 1 4 25 24 55 43 30 19 55 38 55 43 0 4
5 7 10 7 12 0 73 41 78 53 2 4 8 7 13 7 6 0 15 4 22 10 40 33 117 90 122 90 3
0 52 34 110 75 58 41 105 72 105 70 0 -5 30 18 55 42 8 7 18 13 24 13 6 0 11
5 11 10 0 6 6 10 14 10 8 0 16 3 18 8 6 14 76 61 82 55 3 -4 6 -2 6 4 0 5 22
25 50 44 27 19 50 38 50 42 0 5 4 6 8 3 5 -3 20 2 33 12 64 45 147 32 229 -35
44 -36 47 -49 15 -79 -14 -12 -25 -28 -25 -34 0 -6 -4 -8 -10 -5 -5 3 -10 2
-10 -3 0 -5 -30 -41 -67 -80 -38 -39 -115 -121 -173 -182 -58 -62 -136 -145
-175 -185 -148 -156 -343 -361 -405 -428 -36 -38 -100 -105 -142 -149 -43 -44
-78 -82 -78 -84 0 -2 -54 -59 -120 -126 -66 -67 -120 -124 -120 -126 0 -2 -29
-32 -65 -67 -36 -35 -65 -67 -65 -72 0 -4 -9 -14 -20 -21 -12 -7 -18 -17 -15
-22 6 -10 105 86 105 101 0 5 4 8 8 7 10 -4 78 64 74 74 -1 5 2 8 8 8 5 0 35
25 66 55 32 30 62 55 67 55 6 0 8 3 5 6 -3 3 15 24 40 47 43 40 158 150 433
418 65 63 119 115 119 114 0 -1 38 35 84 79 46 45 137 131 202 191 65 61 157
148 205 195 179 175 211 202 246 207 22 4 33 2 33 -6 0 -7 6 -11 13 -9 6 1 41
-13 76 -32 60 -32 62 -35 45 -50 -11 -9 -20 -22 -22 -30 -2 -8 -10 -21 -19
-28 -9 -6 -13 -12 -7 -12 5 0 1 -5 -9 -11 -9 -6 -15 -14 -12 -20 4 -5 2 -9 -3
-9 -6 0 -22 -20 -36 -45 -15 -25 -31 -45 -36 -45 -6 0 -10 -6 -10 -12 0 -11
-53 -89 -144 -215 -9 -13 -16 -25 -16 -28 0 -3 -6 -12 -14 -20 -8 -8 -29 -37
-47 -65 -18 -27 -36 -50 -41 -50 -5 0 -7 -4 -4 -9 3 -5 -1 -14 -9 -21 -7 -6
-29 -35 -47 -63 -18 -29 -38 -56 -45 -60 -8 -5 -11 -12 -8 -18 4 -5 1 -9 -4
-9 -6 0 -11 -5 -11 -10 0 -6 -5 -16 -10 -23 -38 -45 -53 -65 -82 -111 -18 -28
-37 -56 -43 -63 -5 -7 -16 -19 -23 -28 -7 -8 -10 -15 -6 -15 4 0 -3 -9 -16
-20 -13 -11 -19 -20 -14 -20 5 0 2 -6 -6 -13 -8 -7 -21 -24 -29 -39 -8 -16
-18 -28 -23 -28 -4 0 -8 -6 -8 -14 0 -7 -12 -26 -28 -42 -15 -16 -28 -33 -30
-39 -1 -5 -7 -17 -14 -25 -18 -20 -45 -63 -47 -72 0 -5 -9 -16 -18 -26 -33
-34 -51 -60 -47 -65 2 -2 -5 -12 -16 -22 -11 -10 -20 -24 -20 -31 0 -7 -8 -19
-19 -26 -10 -7 -20 -17 -21 -23 -4 -14 -32 -57 -47 -73 -7 -8 -18 -23 -24 -35
-12 -22 -24 -37 -51 -68 -10 -10 -18 -22 -18 -26 0 -5 -7 -16 -15 -25 -8 -10
-33 -47 -56 -83 -23 -36 -46 -65 -51 -65 -4 0 -8 -7 -8 -15 0 -8 -4 -15 -9
-15 -5 0 -12 -11 -15 -25 -4 -14 -10 -24 -14 -21 -4 2 -13 -8 -20 -23 -7 -15
-20 -36 -30 -47 -10 -10 -27 -34 -38 -53 -10 -19 -26 -43 -34 -52 -33 -39 -41
-49 -35 -49 4 0 0 -7 -8 -15 -16 -15 -97 -132 -131 -188 -11 -18 -26 -36 -33
-40 -7 -5 -11 -12 -8 -18 4 -5 1 -9 -5 -9 -6 0 -15 -11 -20 -25 -5 -14 -14
-25 -20 -25 -6 0 -9 -4 -5 -9 3 -6 0 -13 -7 -18 -17 -11 -118 -151 -118 -163
0 -6 -5 -10 -11 -10 -6 0 -9 -7 -5 -15 3 -8 2 -14 -2 -12 -4 1 -8 -2 -9 -6 -1
-5 -10 -15 -20 -23 -10 -7 -14 -14 -9 -14 6 0 1 -7 -10 -15 -10 -8 -16 -15
-12 -15 5 0 -1 -9 -12 -20 -11 -11 -20 -26 -20 -32 0 -7 6 -4 12 7 6 11 17 25
23 30 24 20 104 133 99 138 -3 3 4 11 16 17 12 6 19 14 17 17 -3 2 2 13 11 23
20 21 21 23 90 113 29 37 50 67 48 67 -2 0 10 16 27 36 18 19 31 37 30 39 -1
3 13 21 32 42 19 21 35 41 35 44 0 3 8 15 18 27 10 11 27 33 38 47 10 15 24
32 29 39 6 6 22 27 35 46 13 19 29 40 35 47 19 23 31 38 55 73 23 33 43 58 65
84 6 6 26 34 45 61 36 52 56 78 78 100 6 8 12 16 12 20 0 4 6 12 13 19 6 7 21
25 32 40 11 16 26 34 33 42 7 8 10 14 5 14 -4 0 3 7 15 16 12 8 22 21 22 28 0
8 7 17 16 20 8 3 12 10 9 16 -3 5 -2 10 2 10 5 0 35 36 68 81 33 44 74 97 90
118 17 21 39 50 50 65 11 16 25 33 30 40 6 6 22 27 35 46 14 19 32 42 40 52
31 34 40 47 40 57 0 5 3 11 8 13 8 3 50 54 72 88 8 13 25 33 37 45 12 13 19
26 16 29 -3 3 2 8 11 12 9 3 16 12 16 19 0 7 3 15 8 17 4 1 27 30 52 63 58 79
62 84 82 102 9 9 15 20 12 25 -3 4 0 8 5 8 6 0 11 7 11 16 0 8 5 12 10 9 6 -3
10 -2 10 3 0 8 53 81 146 201 1 1 7 0 13 -4 8 -4 6 -16 -4 -35 -9 -17 -15 -32
-15 -35 0 -3 0 -6 -1 -7 -4 -13 -10 -45 -11 -55 -1 -7 -5 -13 -8 -13 -6 0 -15
-29 -21 -68 0 -4 -5 -12 -11 -19 -5 -7 -7 -16 -4 -22 3 -5 3 -11 -2 -13 -8 -3
-70 -200 -80 -252 -3 -17 -6 -57 -6 -88 -1 -32 -5 -58 -9 -58 -5 0 -5 -5 -1
-11 3 -6 8 -30 9 -52 2 -23 13 -66 24 -95 26 -64 23 -82 -27 -186 -22 -44 -43
-91 -47 -103 -3 -13 -11 -23 -16 -23 -6 0 -8 -4 -4 -9 3 -5 0 -15 -7 -23 -7
-7 -14 -20 -16 -28 -4 -22 -56 -125 -64 -128 -5 -2 -8 -8 -8 -14 0 -15 -121
-262 -132 -269 -5 -3 -9 -8 -8 -10 4 -9 -13 -59 -19 -59 -6 0 -34 -64 -29 -66
2 0 -3 -8 -11 -17 -12 -15 -11 -17 3 -17 9 0 16 8 16 21 0 11 5 17 10 14 6 -3
10 4 10 18 0 14 7 30 15 37 8 7 12 16 9 21 -3 5 -1 9 5 9 5 0 13 9 16 21 4 11
23 48 42 82 20 34 36 68 36 75 0 6 4 12 9 12 4 0 8 6 8 14 0 7 7 19 15 26 8 7
15 20 15 30 0 10 7 21 16 24 8 3 13 10 10 15 -4 5 -1 15 6 23 7 7 28 43 47 78
37 71 75 141 120 223 16 28 29 57 29 62 2 22 36 15 61 -12 14 -16 41 -38 59
-48 17 -11 32 -23 32 -28 0 -5 7 -7 15 -3 8 3 15 2 15 -2 0 -16 134 -54 196
-56 69 -3 80 -7 68 -28 -5 -7 -9 -18 -10 -24 -1 -6 -10 -38 -19 -70 -9 -33
-17 -60 -16 -61 0 -2 -8 -27 -18 -55 -20 -59 -51 -160 -56 -187 -2 -9 -10 -34
-19 -54 -8 -20 -13 -37 -11 -37 2 0 -3 -19 -11 -42 -9 -24 -18 -52 -20 -63 -8
-33 -9 -35 -31 -92 -3 -10 -5 -21 -5 -25 1 -4 -7 -31 -17 -60 -10 -29 -26 -80
-36 -113 -9 -33 -23 -78 -30 -100 -17 -51 -29 -98 -27 -107 1 -5 -3 -8 -10 -8
-6 0 -9 -2 -6 -5 3 -3 -3 -34 -14 -68 -22 -71 -29 -97 -30 -114 -1 -7 -4 -13
-7 -13 -4 0 -8 -12 -9 -27 -1 -15 -5 -29 -10 -32 -4 -3 -7 -10 -7 -16 0 -5
-13 -50 -29 -100 -15 -49 -30 -99 -33 -110 -2 -11 -5 -24 -6 -30 -2 -5 -5 -14
-9 -20 -5 -8 -29 -87 -32 -105 -1 -3 -5 -11 -10 -18 -4 -7 -5 -16 -2 -19 3 -3
1 -12 -5 -20 -6 -7 -9 -13 -6 -13 3 0 0 -12 -8 -27 -8 -15 -12 -30 -9 -35 3
-4 1 -8 -5 -8 -5 0 -8 -9 -6 -20 2 -11 0 -20 -6 -20 -5 0 -8 -3 -8 -7 1 -5 0
-10 -1 -13 -1 -3 -3 -12 -5 -20 -2 -8 -7 -24 -11 -34 -5 -12 -4 -17 3 -13 14
9 65 155 58 166 -3 5 0 11 5 13 6 2 13 12 15 23 2 11 4 21 5 23 2 1 4 7 5 12
1 6 4 12 5 15 1 3 3 8 4 13 1 4 5 13 9 20 5 6 6 12 2 12 -3 0 1 14 10 30 9 17
13 30 9 30 -4 0 -2 6 3 13 6 6 16 35 23 62 7 28 17 55 21 61 5 6 10 20 12 32
2 12 6 25 10 28 4 4 7 16 7 26 0 10 5 18 12 18 6 0 9 3 5 6 -5 5 10 54 40 134
3 8 8 24 10 34 2 11 8 24 13 31 5 6 11 22 14 35 3 14 18 62 35 107 16 45 27
84 23 87 -3 3 -1 6 4 6 5 0 16 21 24 47 7 27 20 64 28 83 9 19 16 42 18 50 1
8 21 67 43 130 23 63 44 122 47 130 3 8 4 15 3 15 -1 0 6 17 14 38 9 20 13 37
9 37 -4 0 -2 4 3 8 12 8 45 102 45 126 0 9 4 16 9 16 8 0 26 66 23 83 -1 4 3
7 10 7 6 0 8 3 5 7 -4 3 -2 12 4 20 6 7 8 13 4 13 -4 0 -3 6 2 13 6 6 20 44
32 84 23 74 62 123 149 187 51 37 112 96 112 107 0 6 3 8 8 5 4 -2 23 28 42
67 33 69 35 77 37 192 1 71 -3 125 -9 133 -6 6 -8 12 -5 12 4 0 0 18 -8 40
-18 50 -13 172 8 221 9 20 13 39 10 43 -4 3 -2 6 4 6 10 0 40 87 35 103 -1 4
4 10 12 13 8 3 13 11 10 18 -3 7 3 30 12 51 9 21 17 46 19 54 2 9 9 30 16 46
6 17 14 39 16 49 2 11 12 34 21 50 16 27 24 31 58 30 42 -2 79 -8 106 -19 15
-6 17 -17 14 -65 -2 -33 -6 -63 -9 -67 -3 -5 -8 -35 -11 -68 -10 -106 -18
-170 -24 -180 -4 -5 -7 -26 -8 -45 -6 -93 -12 -147 -17 -165 -9 -30 -19 -104
-20 -157 -1 -27 -4 -48 -7 -48 -3 0 -6 -10 -6 -22 -1 -13 -5 -45 -9 -73 -4
-27 -8 -61 -10 -75 -2 -14 -4 -25 -5 -25 -1 0 -3 -23 -5 -51 -2 -28 -7 -64
-10 -80 -4 -16 -8 -45 -10 -64 -1 -19 -4 -35 -5 -35 -1 0 -3 -20 -5 -45 -1
-25 -5 -58 -9 -75 -9 -48 -20 -137 -20 -177 -1 -21 -4 -38 -8 -38 -5 0 -8 -5
-8 -11 0 -5 6 -7 13 -3 9 6 9 5 0 -7 -6 -8 -13 -28 -16 -46 -3 -17 -7 -36 -10
-40 -3 -5 -1 -15 5 -23 8 -13 9 -12 5 1 -3 9 -1 21 4 26 6 6 11 21 13 34 1 13
5 31 8 39 4 8 9 31 12 50 3 19 8 46 11 60 9 42 17 84 20 105 2 11 4 21 5 23 2
1 4 7 5 12 1 6 4 13 5 18 1 4 3 12 4 17 1 6 6 30 11 55 5 25 8 48 7 53 -1 4 1
7 6 7 4 0 8 12 9 28 1 33 10 76 24 119 6 18 8 37 4 43 -3 5 -2 10 4 10 5 0 8
8 6 18 -1 9 1 26 6 38 4 11 10 34 13 50 2 16 7 38 9 49 3 11 8 40 13 65 9 53
11 59 14 63 1 1 4 13 5 27 4 31 14 80 21 100 3 8 8 33 11 55 3 22 11 62 18 90
7 27 11 53 9 57 -3 5 -2 8 3 8 4 0 9 21 11 46 1 26 5 51 9 58 7 11 10 26 18
91 8 75 27 135 43 144 27 13 118 11 138 -4 16 -11 18 -36 20 -256 1 -134 3
-245 4 -246 3 -4 7 -19 9 -33 0 -5 8 -10 16 -10 8 0 15 -3 15 -7 0 -5 21 -8
47 -8 l47 0 2 195 c4 274 10 352 28 366 8 6 42 12 75 13 53 2 62 -1 75 -21 8
-13 17 -43 20 -68 2 -25 5 -45 6 -45 2 0 8 -31 14 -70 3 -16 10 -55 16 -85 6
-30 13 -66 15 -80 2 -14 4 -25 5 -25 1 0 3 -13 5 -30 1 -16 3 -30 4 -30 3 0 9
-30 15 -70 3 -16 5 -30 6 -30 2 0 6 -23 14 -75 8 -56 23 -135 26 -135 1 0 3
-18 5 -40 2 -22 9 -58 14 -80 6 -22 12 -58 15 -80 4 -38 7 -53 23 -120 7 -31
8 -41 17 -112 3 -22 10 -53 16 -67 5 -14 7 -26 4 -26 -2 0 0 -10 7 -21 9 -17
8 -20 -2 -14 -7 5 -10 4 -6 -2 3 -5 9 -25 12 -44 3 -19 8 -41 10 -49 9 -33 16
-77 18 -110 1 -19 5 -38 10 -41 4 -3 8 -22 9 -42 1 -20 4 -37 8 -37 3 0 5 -15
5 -32 -1 -18 4 -36 9 -40 7 -5 7 -8 -2 -8 -10 0 -10 -5 -2 -21 7 -11 9 -26 7
-34 -3 -7 -1 -17 5 -23 5 -5 11 -25 13 -44 1 -18 5 -44 8 -58 4 -14 9 -41 12
-60 4 -31 8 -50 20 -110 2 -8 7 -40 11 -70 9 -59 10 -69 14 -72 1 -2 3 -19 5
-38 3 -19 6 -44 8 -55 2 -11 8 -39 12 -63 4 -23 10 -44 14 -46 9 -6 10 47 1
59 -4 6 -11 37 -14 70 -4 33 -9 78 -12 100 -3 22 -7 58 -9 80 -2 22 -7 54 -10
70 -4 17 -8 48 -10 70 -2 22 -6 55 -9 74 -3 18 -7 53 -8 77 -2 24 -5 44 -8 44
-4 0 -6 10 -7 23 -2 51 -13 164 -17 187 -3 13 -8 40 -11 60 -15 112 -18 139
-19 172 -1 21 -3 38 -6 38 -3 0 -6 12 -6 28 -1 24 -5 59 -18 157 -3 17 -7 53
-11 80 -3 28 -8 61 -12 75 -3 14 -7 48 -8 75 -2 28 -4 50 -5 50 -1 0 -3 18 -5
40 -1 22 -5 49 -9 61 -3 11 -9 47 -12 80 -3 32 -7 75 -9 94 -2 19 -6 48 -10
63 -4 16 -8 50 -9 75 -1 26 -4 52 -7 57 -3 6 -5 27 -5 48 1 20 -2 37 -5 37 -3
0 -6 6 -6 13 0 6 -4 41 -8 77 -4 36 -9 82 -10 103 -1 20 -5 40 -8 44 -4 3 -2
13 2 22 5 9 9 20 9 25 0 5 12 16 27 26 27 18 87 18 93 0 2 -6 10 -10 17 -10
15 0 51 -71 61 -120 2 -8 7 -23 13 -35 14 -30 45 -129 43 -137 -1 -5 2 -8 8
-8 6 0 9 -3 8 -7 -2 -10 13 -64 21 -78 3 -5 6 -14 7 -20 1 -5 8 -23 15 -40 7
-16 11 -34 10 -39 -1 -4 3 -13 8 -20 7 -9 22 -52 36 -106 1 -3 9 -23 18 -44
10 -22 15 -41 13 -44 -3 -2 4 -20 14 -40 11 -19 17 -39 13 -45 -3 -5 -2 -12 3
-16 8 -5 48 -109 59 -151 2 -8 4 -15 5 -15 1 0 3 -7 5 -15 2 -8 10 -34 19 -58
8 -23 15 -44 15 -47 1 -3 8 -21 16 -41 8 -20 15 -43 15 -51 0 -7 7 -25 16 -38
9 -14 13 -25 9 -25 -4 0 -3 -6 2 -13 6 -6 9 -20 8 -29 -2 -10 1 -18 6 -18 5 0
9 -9 9 -19 0 -11 5 -23 11 -26 6 -4 8 -13 5 -21 -3 -8 -2 -14 3 -14 4 0 8 -6
8 -12 1 -7 13 -43 27 -80 14 -38 22 -68 19 -68 -3 0 1 -7 8 -17 8 -9 13 -18
12 -19 -3 -4 -3 -3 27 -89 12 -33 23 -67 25 -75 2 -8 24 -72 49 -143 24 -70
43 -127 41 -127 -2 0 2 -12 10 -27 8 -15 12 -30 9 -35 -3 -4 -1 -8 4 -8 8 0
24 -44 26 -75 1 -5 4 -12 8 -15 4 -3 10 -17 12 -30 2 -14 5 -26 7 -27 1 -2 2
-6 3 -10 2 -9 34 -98 46 -128 5 -11 10 -29 13 -40 3 -11 26 -81 52 -155 26
-74 48 -139 50 -145 1 -5 8 -23 14 -40 7 -16 15 -41 17 -54 3 -13 12 -37 20
-52 8 -16 14 -31 14 -34 0 -3 0 -6 1 -7 0 -2 2 -14 5 -27 2 -14 8 -29 13 -35
6 -9 74 -212 87 -261 7 -26 31 -85 37 -91 11 -11 2 49 -11 72 -6 12 -13 33
-16 47 -4 23 -16 64 -34 117 -3 8 -6 20 -8 25 -1 6 -14 48 -29 95 -15 47 -33
108 -41 135 -8 28 -16 55 -18 60 -2 6 -6 17 -9 25 -4 8 -8 24 -10 35 -4 19 -9
35 -26 80 -5 11 -7 28 -5 38 1 9 -3 17 -9 17 -5 0 -8 3 -5 6 4 3 0 21 -8 40
-8 19 -11 34 -8 34 4 0 2 6 -4 13 -6 7 -14 27 -17 45 -3 18 -12 53 -21 78 -8
25 -16 54 -17 65 -1 10 -4 19 -8 19 -6 0 -23 77 -20 93 0 4 -3 7 -9 7 -6 0 -9
3 -8 8 3 15 -15 82 -22 82 -5 0 -7 8 -5 18 1 9 -2 23 -8 29 -5 7 -7 13 -3 13
4 0 0 12 -7 28 -7 15 -13 34 -12 42 0 8 -3 18 -7 21 -4 3 -9 17 -10 32 -1 15
-6 27 -10 27 -4 0 -8 10 -8 22 0 12 -8 47 -19 77 -22 68 -41 131 -45 151 -2 8
-6 24 -10 35 -14 37 -24 69 -37 120 -6 28 -15 55 -18 60 -6 11 -10 29 -13 58
-1 9 -5 17 -8 17 -4 0 -7 6 -8 13 -1 19 -9 48 -26 97 -9 25 -16 50 -16 57 0 6
-5 24 -12 40 -12 29 -13 33 -22 73 -3 14 -14 51 -26 84 -11 32 -17 62 -14 67
3 5 0 9 -7 9 -7 0 -9 3 -6 6 3 4 2 15 -3 25 -6 10 -11 29 -12 43 -1 15 -6 26
-10 26 -4 0 -8 10 -8 23 0 13 -3 27 -7 31 -4 3 -8 17 -10 29 -2 12 -6 29 -10
37 -3 8 -8 23 -9 32 -2 10 -13 43 -24 75 -11 32 -21 68 -23 80 -2 12 -6 26
-10 29 -4 4 -7 17 -7 29 0 11 -5 26 -12 33 -7 7 -9 12 -5 12 3 0 2 12 -4 27
-11 30 -13 33 -29 103 -6 25 -15 49 -21 54 -5 6 -9 21 -9 33 0 13 -7 37 -15
53 -9 17 -15 32 -15 35 0 3 0 6 -1 8 -5 17 -11 49 -14 79 -3 36 4 45 40 49 6
0 17 5 26 10 41 22 79 20 104 -5 14 -14 25 -32 25 -40 0 -8 4 -16 9 -18 5 -1
20 -25 33 -53 37 -75 99 -188 110 -203 6 -6 7 -12 2 -12 -5 0 -4 -4 1 -8 6 -4
15 -16 21 -27 6 -11 33 -60 59 -110 27 -49 67 -124 90 -166 23 -42 48 -90 56
-108 8 -17 17 -31 21 -31 5 0 8 -9 8 -20 0 -11 4 -20 10 -20 5 0 12 -11 16
-25 3 -14 10 -25 16 -25 5 0 6 -4 3 -10 -3 -5 -2 -10 2 -10 8 0 28 -43 30 -64
1 -5 6 -12 11 -15 10 -7 43 -67 41 -77 0 -4 3 -10 8 -13 4 -3 17 -24 28 -46
11 -22 23 -42 26 -45 3 -3 18 -31 34 -63 15 -31 32 -60 36 -63 5 -3 7 -10 4
-15 -4 -5 -1 -9 5 -9 6 0 8 -4 5 -10 -3 -5 -2 -10 3 -10 6 0 15 -12 21 -28 13
-33 46 -92 61 -109 6 -7 8 -13 5 -13 -4 0 3 -13 14 -29 11 -15 18 -31 14 -35
-3 -3 -2 -6 4 -6 5 0 18 -19 29 -42 10 -24 21 -45 24 -48 3 -3 21 -36 40 -75
19 -38 41 -81 49 -94 9 -13 16 -31 17 -39 2 -8 7 -18 13 -21 9 -6 26 -42 31
-66 1 -5 7 -17 14 -25 7 -8 35 -59 62 -112 26 -53 53 -94 58 -90 6 3 5 7 -2
10 -7 2 -12 12 -12 23 0 10 -5 19 -11 19 -6 0 -9 6 -6 14 3 8 -1 20 -9 26 -8
7 -14 17 -14 22 0 5 -46 102 -102 216 -57 114 -103 209 -103 212 -1 3 -15 33
-32 67 -17 34 -28 64 -25 67 3 4 0 6 -6 6 -7 0 -12 4 -12 10 0 5 -30 71 -66
147 -36 76 -67 145 -68 152 -2 8 -8 17 -14 19 -7 2 -12 10 -12 18 0 8 -8 29
-17 47 -9 18 -18 34 -18 37 0 3 -7 16 -15 30 -8 14 -15 27 -15 30 0 3 -8 19
-18 36 -9 17 -13 34 -10 38 4 3 2 6 -4 6 -9 0 -27 35 -37 70 -1 3 -28 57 -59
121 -31 64 -57 122 -57 128 0 6 -5 11 -12 11 -6 0 -9 3 -5 6 3 3 -5 25 -18 49
-13 23 -21 45 -18 49 4 3 1 6 -5 6 -7 0 -12 7 -12 15 0 8 -4 15 -10 15 -5 0
-7 7 -4 15 4 8 1 15 -7 15 -7 0 -9 3 -6 7 4 3 1 13 -7 22 -8 9 -16 21 -17 26
-4 20 -24 60 -33 66 -5 4 -5 12 -2 18 4 6 4 11 -1 11 -4 0 -15 15 -22 33 -44
98 -85 183 -93 188 -6 3 -9 9 -9 13 1 3 0 7 0 9 -1 1 -3 19 -4 40 -2 36 0 39
42 58 44 20 123 33 123 21 0 -4 14 -23 30 -42 36 -43 38 -45 75 -95 17 -22 33
-41 38 -43 4 -2 7 -8 7 -13 0 -8 13 -26 45 -63 31 -36 105 -136 101 -136 -3 0
8 -13 24 -29 17 -15 30 -32 30 -37 0 -5 13 -23 28 -40 15 -18 34 -42 42 -55 8
-12 23 -29 33 -38 9 -8 17 -21 17 -28 0 -7 3 -13 8 -13 4 0 18 -17 32 -37 30
-45 49 -69 73 -95 9 -10 14 -18 10 -18 -5 0 -3 -4 3 -8 6 -4 30 -34 55 -67 24
-33 46 -62 49 -65 3 -3 25 -32 49 -65 25 -33 49 -63 55 -67 6 -4 8 -8 4 -8 -5
0 0 -8 10 -18 23 -25 42 -50 72 -92 13 -19 27 -37 30 -40 3 -3 17 -21 30 -40
13 -19 27 -37 30 -40 3 -3 17 -21 30 -40 13 -19 27 -37 30 -40 3 -3 21 -27 40
-53 19 -27 47 -63 63 -82 15 -18 27 -35 27 -39 0 -5 8 -16 53 -69 10 -12 26
-34 35 -49 9 -16 20 -28 24 -28 4 0 8 -7 8 -15 0 -8 5 -15 10 -15 6 0 10 -6
10 -14 0 -8 4 -16 8 -18 13 -5 212 -274 212 -286 0 -5 6 -12 13 -15 7 -3 26
-24 42 -48 17 -24 32 -46 35 -49 3 -3 44 -57 90 -120 46 -63 87 -116 92 -118
4 -2 8 -8 8 -13 0 -6 5 -15 10 -22 6 -7 24 -30 40 -52 16 -22 33 -45 37 -50
47 -61 63 -85 63 -94 0 -6 3 -11 8 -11 4 0 28 -28 52 -62 25 -34 50 -66 56
-72 6 -6 16 -21 23 -34 6 -12 17 -22 24 -22 7 0 6 4 -3 10 -8 5 -11 10 -7 10
5 0 2 7 -5 15 -31 34 -38 45 -38 57 0 7 -9 19 -20 26 -11 7 -20 19 -20 27 0 8
-4 15 -10 15 -5 0 -10 5 -10 10 0 6 -9 20 -20 32 -11 12 -20 28 -20 35 0 7 -4
13 -8 13 -4 0 -16 15 -27 33 -10 17 -24 37 -29 44 -30 34 -36 43 -36 53 0 5
-4 10 -10 10 -5 0 -10 5 -10 11 0 8 -50 79 -70 99 -3 3 -11 17 -19 33 -8 15
-18 27 -23 27 -4 0 -8 7 -8 15 0 9 -7 18 -15 21 -8 4 -12 10 -9 15 3 5 0 9 -5
9 -6 0 -11 7 -11 15 0 8 -4 15 -10 15 -5 0 -10 7 -10 15 0 8 -4 15 -10 15 -5
0 -10 7 -10 15 0 8 -4 15 -9 15 -5 0 -14 13 -21 30 -7 16 -16 27 -21 24 -5 -3
-9 0 -9 6 0 6 -14 32 -32 58 -18 26 -30 47 -28 47 3 0 -7 13 -22 29 -14 16
-32 40 -40 55 -7 14 -19 30 -25 34 -7 4 -13 12 -13 18 0 5 -5 15 -10 22 -22
25 -100 137 -100 143 0 3 -6 12 -12 19 -30 34 -38 45 -38 55 0 6 -7 13 -15 16
-8 4 -12 10 -9 15 3 5 1 9 -4 9 -5 0 -15 12 -23 27 -8 15 -20 34 -27 43 -33
39 -82 111 -82 121 0 5 -11 21 -25 35 -14 14 -32 39 -41 57 -10 18 -26 40 -36
49 -11 9 -19 19 -18 23 1 3 -25 43 -57 88 -32 45 -60 86 -62 92 -2 5 -8 14
-13 20 -5 5 -40 55 -78 110 -38 55 -74 106 -80 112 -6 7 -8 13 -5 13 3 0 -6
12 -20 27 -14 15 -25 32 -25 36 0 5 -6 15 -12 22 -30 33 -38 45 -38 55 0 5 -5
10 -12 10 -6 0 -9 3 -5 6 5 5 -5 20 -38 58 -5 6 -16 23 -24 39 -8 15 -18 27
-23 27 -4 0 -8 5 -8 10 0 11 -10 24 -42 61 -10 10 -17 20 -16 22 3 4 -34 60
-56 85 -11 12 -16 22 -12 22 4 0 -4 12 -18 27 -14 15 -23 30 -20 35 3 4 -2 8
-11 8 -9 0 -14 4 -11 8 3 5 -4 18 -14 30 -11 12 -20 23 -20 26 0 5 -100 149
-120 173 -14 17 -12 40 3 40 6 0 35 14 63 30 50 30 114 47 114 31 0 -5 4 -7 9
-4 5 3 38 -22 74 -57 36 -34 129 -123 207 -197 78 -74 145 -137 151 -138 5 -2
7 -8 3 -13 -3 -5 -1 -9 5 -9 5 0 28 -18 50 -40 22 -22 45 -40 51 -40 5 0 10
-6 10 -12 1 -7 19 -26 40 -43 21 -16 39 -36 40 -44 0 -8 2 -12 6 -9 3 3 47
-35 98 -86 101 -98 373 -359 524 -503 52 -48 166 -159 255 -246 88 -86 165
-157 171 -156 6 0 5 3 -2 6 -6 2 -9 10 -6 15 4 7 2 8 -4 4 -7 -4 -12 -3 -12 2
0 4 -54 64 -120 132 -66 67 -120 123 -120 124 0 1 -37 41 -82 88 -151 156
-288 301 -288 303 0 2 -40 43 -90 93 -49 50 -90 96 -90 102 0 6 -4 8 -10 5 -5
-3 -10 -2 -10 2 0 5 -43 53 -95 106 -52 53 -93 97 -91 97 2 0 -38 43 -89 95
-51 52 -92 95 -91 95 1 0 -34 38 -78 83 -177 183 -291 309 -294 324 -3 9 0 13
7 9 6 -4 11 -2 11 3 0 6 6 11 14 11 7 0 19 7 26 15 7 9 15 13 18 11 2 -3 24 8
48 24 23 17 54 30 69 30 24 0 116 -53 123 -72 2 -4 8 -8 13 -8 6 0 15 -4 22
-10 58 -47 77 -61 77 -55 0 3 12 -6 28 -20 15 -14 35 -28 45 -31 10 -3 14 -11
11 -17 -4 -7 -4 -9 1 -5 7 7 92 -46 107 -67 5 -7 8 -7 8 0 0 6 3 6 8 -1 6 -9
133 -100 179 -129 20 -12 51 -36 68 -53 8 -6 18 -12 23 -12 6 0 24 -13 41 -29
18 -17 34 -29 36 -28 2 1 42 -26 90 -60 47 -35 90 -63 95 -63 6 0 10 -3 10 -8
0 -4 18 -18 40 -32 22 -14 40 -29 40 -34 0 -5 3 -7 6 -3 4 3 12 1 20 -6 33
-29 44 -37 54 -37 5 0 10 -3 10 -7 0 -5 25 -24 55 -43 30 -19 55 -38 55 -42 0
-5 7 -8 15 -8 7 0 19 -8 24 -17 6 -10 11 -13 11 -8 0 6 3 6 8 -1 4 -5 36 -30
72 -55 78 -53 77 -52 116 -84 18 -14 36 -25 42 -25 6 0 12 -4 14 -8 2 -5 82
-64 178 -131 96 -68 177 -127 178 -132 2 -5 8 -9 14 -9 10 0 79 -49 90 -65 5
-7 8 -7 8 0 0 6 3 6 8 0 4 -6 28 -25 54 -42 26 -16 44 -34 40 -38 -4 -5 -1 -5
6 -1 7 4 15 1 18 -8 3 -9 10 -14 14 -11 5 3 12 -1 17 -8 4 -7 25 -23 46 -36
20 -12 37 -28 37 -33 0 -6 3 -9 6 -5 6 6 76 -41 82 -55 2 -5 10 -8 18 -8 8 0
14 -4 14 -10 0 -5 7 -10 15 -10 8 0 15 -4 15 -8 0 -4 13 -16 30 -25 16 -10 35
-23 42 -30 26 -26 79 -59 85 -54 7 7 -6 20 -87 82 -36 27 -71 55 -78 62 -7 7
-17 13 -21 13 -4 0 -16 8 -27 17 -10 10 -44 37 -74 60 -132 100 -165 127 -172
137 -4 6 -8 7 -8 3 0 -5 -6 -2 -13 5 -8 7 -28 24 -47 38 -18 14 -44 35 -57 47
-13 13 -26 23 -29 23 -7 0 -106 77 -131 102 -13 13 -23 19 -23 15 0 -4 -11 4
-25 18 -14 14 -29 25 -33 25 -4 0 -23 14 -42 30 -45 39 -38 33 -160 124 -58
44 -108 84 -112 90 -4 6 -8 7 -8 2 0 -5 -8 0 -17 10 -10 11 -39 35 -65 54 -27
18 -48 37 -48 42 0 5 -4 6 -10 3 -5 -3 -10 -1 -10 4 0 6 -5 11 -11 11 -7 0
-24 13 -40 29 -15 16 -30 27 -33 23 -3 -3 -6 0 -6 6 0 7 -4 12 -10 12 -5 0
-18 8 -29 17 -27 26 -130 104 -133 101 -2 -1 -15 9 -29 22 -36 34 -100 84
-112 89 -6 2 -21 15 -34 27 -13 13 -27 24 -31 24 -4 0 -23 14 -42 30 -19 16
-40 34 -47 40 -7 5 -16 10 -20 10 -5 0 -15 8 -24 18 -8 9 -26 25 -40 35 -91
65 -109 80 -109 88 0 6 -4 8 -8 5 -5 -3 -16 3 -25 12 -21 23 -45 42 -52 42 -6
0 -12 4 -70 55 -22 19 -43 35 -46 35 -3 0 -17 9 -30 21 -55 47 -66 55 -91 68
-15 8 -25 18 -22 23 3 4 0 8 -6 8 -13 0 -34 21 -37 37 -1 6 11 16 27 22 17 5
30 15 30 20 0 6 11 13 25 17 14 3 25 10 25 15 0 5 6 9 14 9 8 0 17 7 20 16 4
9 9 14 12 11 4 -3 15 4 25 16 10 12 18 19 19 15 0 -4 10 -4 23 1 15 6 29 5 41
-5 11 -7 23 -11 27 -8 5 3 9 0 9 -5 0 -6 3 -10 8 -9 10 2 66 -25 74 -37 4 -5
8 -6 8 -2 0 5 16 0 36 -12 19 -12 42 -21 50 -21 8 0 14 -4 14 -10 0 -5 9 -10
20 -10 11 0 20 -5 20 -10 0 -6 3 -9 8 -9 13 3 72 -25 72 -34 0 -4 5 -5 10 -2
6 3 10 2 10 -4 0 -6 7 -8 15 -5 8 4 15 1 15 -5 0 -6 5 -11 12 -11 6 0 20 -8
31 -18 11 -9 17 -11 13 -4 -4 7 8 3 26 -8 18 -11 44 -25 58 -30 69 -30 80 -36
80 -44 0 -4 6 -6 14 -3 8 3 16 3 18 -1 4 -9 255 -132 268 -132 6 0 10 -4 10
-10 0 -5 5 -10 10 -10 15 0 105 -43 108 -52 2 -5 8 -6 13 -2 5 3 16 -2 25 -10
9 -9 19 -14 24 -11 5 3 10 2 12 -2 4 -10 72 -44 116 -58 12 -4 22 -11 22 -16
0 -5 6 -9 14 -9 8 0 47 -17 88 -38 40 -21 89 -45 108 -52 19 -8 37 -16 40 -19
11 -12 50 -31 65 -31 8 0 15 -3 15 -8 0 -7 90 -52 104 -52 4 0 24 -11 46 -25
22 -14 40 -21 40 -15 0 6 -8 14 -17 17 -10 4 -20 9 -23 12 -10 12 -50 31 -65
31 -10 0 -13 5 -9 12 5 8 2 9 -9 5 -10 -3 -17 -2 -17 4 0 5 -15 16 -34 24 -19
8 -58 28 -86 45 -28 16 -57 30 -65 30 -8 0 -15 4 -15 9 0 5 -8 11 -17 14 -10
3 -49 24 -88 46 -38 23 -87 48 -107 57 -21 9 -38 20 -38 25 0 5 -9 9 -20 9
-11 0 -20 5 -20 10 0 6 -4 10 -9 10 -5 0 -37 16 -70 34 -34 19 -61 32 -61 28
0 -4 -4 -2 -8 4 -4 6 -45 31 -92 55 -47 24 -86 47 -88 52 -2 4 -10 7 -18 7 -8
0 -14 5 -14 10 0 6 -3 9 -7 9 -20 -3 -34 2 -28 10 3 6 -4 8 -15 6 -11 -2 -20
-1 -20 3 0 4 -17 16 -37 27 -21 11 -41 24 -45 30 -5 7 -8 7 -8 0 0 -7 -3 -7
-8 0 -4 6 -50 32 -102 59 -52 27 -96 53 -98 58 -2 4 -10 8 -19 8 -8 0 -27 8
-41 18 -15 10 -40 24 -57 32 -16 8 -32 17 -35 21 -3 3 -26 15 -52 27 -25 12
-49 26 -53 32 -3 5 -14 10 -25 10 -10 0 -21 7 -24 16 -3 8 -10 12 -16 9 -6 -3
-13 1 -17 11 -4 10 0 20 11 26 9 5 25 19 36 30 11 12 20 18 20 12 0 -5 5 -1
11 9 5 9 17 17 25 17 8 0 12 5 9 10 -3 6 0 10 8 10 8 0 18 7 21 16 4 9 9 14
12 11 3 -3 14 2 24 11 60 56 94 64 169 37 22 -8 41 -12 41 -8 0 3 7 0 15 -7 8
-7 15 -10 15 -7 0 3 25 -3 55 -14 30 -10 59 -19 64 -19 5 0 22 -5 38 -12 15
-6 36 -13 46 -15 11 -2 53 -14 94 -28 42 -13 80 -22 84 -19 5 3 9 0 9 -5 0 -6
8 -11 18 -11 9 0 42 -9 71 -20 30 -11 57 -18 59 -15 3 3 11 0 19 -6 7 -6 13
-8 13 -4 0 4 6 3 13 -2 10 -9 49 -22 82 -28 6 -1 12 -3 15 -4 3 -2 14 -4 25
-6 11 -2 21 -8 23 -13 1 -5 14 -7 27 -4 14 2 25 0 25 -5 0 -5 12 -10 26 -11
15 -1 32 -6 38 -11 6 -5 25 -11 42 -14 17 -3 41 -10 53 -16 11 -7 21 -9 21 -5
0 3 7 1 15 -6 8 -7 22 -10 30 -6 8 3 15 0 15 -6 0 -6 3 -8 6 -5 4 3 15 2 26
-4 11 -6 28 -12 39 -15 10 -2 28 -6 38 -8 11 -3 28 -9 39 -15 11 -6 22 -7 26
-4 3 3 6 1 6 -5 0 -6 7 -9 15 -6 8 4 21 2 28 -3 12 -9 79 -31 121 -39 12 -2
22 -8 24 -14 2 -6 8 -8 13 -5 5 3 30 -1 56 -11 27 -9 55 -17 63 -19 8 -2 16
-4 18 -5 2 -3 2 -3 52 -14 19 -5 40 -11 45 -14 6 -4 16 -8 23 -9 6 -2 18 -5
25 -6 6 -2 26 -7 42 -12 17 -4 36 -12 43 -18 6 -5 12 -7 12 -3 0 3 16 -1 36
-9 20 -8 40 -12 45 -9 5 3 9 0 9 -7 0 -7 3 -10 6 -6 3 3 25 -1 47 -10 23 -8
51 -16 62 -18 11 -1 21 -4 23 -5 1 -1 5 -3 10 -4 4 -1 21 -6 37 -13 27 -10 79
-25 97 -27 3 -1 10 -4 14 -8 4 -5 17 -8 29 -8 11 0 26 -5 33 -12 7 -7 12 -9
12 -5 0 4 23 -2 52 -14 28 -11 57 -18 65 -15 7 3 13 1 13 -4 0 -6 9 -10 20
-10 11 0 20 -4 20 -9 0 -4 10 -8 23 -7 12 1 32 -5 45 -13 13 -8 37 -15 55 -17
l31 -2 -24 13 c-19 10 -27 10 -32 2 -5 -8 -8 -5 -8 7 0 11 -3 16 -7 13 -3 -4
-12 -2 -20 5 -7 6 -16 8 -19 5 -3 -3 -30 6 -60 19 -30 13 -54 22 -54 19 0 -3
-21 4 -47 14 -60 22 -82 30 -88 31 -3 0 -49 16 -102 36 -54 19 -124 43 -156
52 -32 10 -55 21 -52 24 4 4 -5 5 -20 4 -15 -2 -29 2 -31 8 -2 6 -16 13 -30
14 -14 1 -33 6 -42 11 -9 4 -60 23 -112 40 -52 18 -104 37 -115 42 -11 5 -29
11 -40 13 -11 3 -51 16 -90 31 -38 14 -74 27 -80 28 -5 2 -16 6 -22 10 -7 5
-13 5 -13 1 0 -3 -7 -1 -15 6 -8 7 -15 10 -15 6 0 -4 -13 0 -29 8 -16 9 -31
12 -35 9 -3 -4 -6 0 -6 7 0 7 -3 10 -6 7 -4 -3 -16 -1 -28 5 -11 7 -24 11 -28
10 -4 -1 -20 3 -35 9 -15 6 -29 10 -30 10 -2 0 -18 6 -38 15 -19 8 -35 12 -35
9 0 -3 -10 1 -22 9 -23 14 -77 31 -90 28 -5 -1 -8 2 -8 7 0 7 -43 20 -65 21
-3 0 -19 7 -35 15 -16 8 -32 15 -35 15 -6 1 -28 8 -52 17 -10 3 -21 7 -25 8
-5 2 -9 3 -10 5 -2 1 -10 3 -18 5 -25 7 -114 36 -135 45 -11 5 -38 14 -60 21
-22 6 -46 16 -52 22 -7 5 -13 6 -13 2 0 -4 -6 -2 -13 4 -8 6 -17 8 -20 4 -4
-3 -7 -1 -7 5 0 6 -7 9 -15 6 -8 -4 -15 -1 -15 5 0 6 -7 8 -15 5 -8 -4 -15 -1
-15 7 0 7 -3 10 -6 6 -3 -3 -28 3 -55 13 -27 11 -49 18 -49 15 0 -2 -19 4 -42
14 -65 28 -81 34 -103 38 -10 2 -22 8 -25 14 -4 5 -14 7 -23 3 -33 -12 -17 21
30 61 48 41 81 72 168 154 81 76 103 88 160 85 28 -1 59 -4 70 -7 29 -7 114
-19 160 -22 22 -2 41 -4 43 -5 1 -2 14 -3 30 -4 15 -1 32 -4 37 -7 6 -3 26 -7
45 -8 48 -4 85 -9 85 -11 0 -1 18 -3 40 -5 22 -2 56 -6 75 -9 114 -18 150 -22
164 -20 9 1 16 -1 16 -5 0 -4 15 -7 33 -8 55 -1 102 -6 112 -12 11 -6 25 -8
95 -14 25 -3 61 -8 80 -11 19 -4 46 -9 60 -11 14 -2 35 -6 47 -9 13 -2 25 -1
28 5 4 5 -2 9 -12 10 -10 0 -27 2 -38 5 -35 7 -99 17 -120 18 -11 1 -22 4 -25
7 -5 6 -139 31 -172 32 -10 1 -18 4 -18 8 0 3 -11 5 -25 4 -14 -2 -27 0 -30 5
-2 4 -16 6 -30 5 -14 -2 -25 0 -25 4 0 4 -10 7 -22 7 -13 1 -36 4 -53 7 -46 9
-82 16 -112 23 -16 3 -47 8 -70 11 -24 3 -43 9 -43 13 0 4 -14 6 -30 5 -58 -5
-48 19 23 55 52 27 131 97 164 145 30 44 61 144 65 204 3 45 7 55 26 62 13 5
28 7 33 3 5 -3 9 -1 9 3 0 5 15 8 33 6 41 -5 37 -5 137 2 47 4 210 7 362 8
153 1 278 6 278 10 0 5 5 5 11 2 17 -11 59 -13 59 -2 0 5 5 5 13 -2 8 -6 16
-8 20 -5 8 8 57 12 57 4 0 -4 7 -7 15 -7 8 0 15 5 15 10 0 5 6 4 13 -2 8 -6
17 -8 20 -4 4 3 148 8 319 10 172 2 319 6 326 8 6 2 12 -1 12 -8 0 -8 3 -8 9
2 7 11 9 11 14 0 3 -8 6 -9 6 -2 1 6 10 9 23 5 13 -3 19 -1 15 6 -5 6 -61 11
-150 12 -224 2 -468 8 -514 13 -24 2 -43 0 -43 -5 0 -5 -7 -5 -17 1 -10 5 -26
5 -40 0 -13 -5 -23 -5 -23 -1 0 4 -120 8 -268 10 -306 3 -415 7 -431 16 -6 4
-20 2 -31 -4 -11 -6 -25 -8 -31 -4 -6 3 -71 7 -144 8 l-134 2 -25 29 c-14 17
-26 36 -26 43 0 6 -5 12 -11 12 -5 0 -8 4 -5 9 3 5 -1 11 -9 15 -8 3 -15 10
-15 15 0 6 -20 31 -45 55 -25 25 -45 43 -45 39 0 -3 -9 2 -20 12 -11 10 -20
14 -20 10 0 -4 -8 -1 -18 8 -9 9 -30 18 -45 21 -15 3 -39 9 -54 12 -15 3 -34
11 -42 17 -12 10 -13 9 -7 -1 10 -16 -25 -13 -36 3 -5 6 -8 5 -8 -3 0 -7 -4
-11 -8 -8 -5 3 -25 6 -45 8 -21 1 -37 6 -37 11 0 4 -4 5 -10 2 -5 -3 -10 -1
-10 4 0 6 -6 11 -12 11 -13 1 -58 63 -58 80 0 8 39 21 80 26 68 9 88 12 120
21 19 6 43 9 53 7 9 -1 17 1 17 5 0 3 17 7 38 9 34 2 77 8 77 12 0 1 11 3 25
5 14 1 36 5 50 8 14 3 47 8 73 11 27 3 52 8 56 10 10 6 99 20 134 20 15 1 27
4 27 7 0 3 6 6 13 7 6 0 26 4 42 7 17 4 37 7 45 8 8 0 21 5 29 11 12 9 13 8 6
-4 -7 -13 -6 -13 7 -2 11 9 18 10 23 2 3 -6 12 -7 18 -3 7 4 18 8 25 9 8 2 21
6 30 10 9 4 28 8 42 9 76 7 130 15 152 24 14 5 29 7 32 4 3 -4 6 -2 6 4 0 6
-13 10 -30 9 -16 0 -30 -4 -30 -7 0 -4 -8 -6 -17 -6 -18 1 -109 -10 -173 -20
-19 -3 -63 -7 -97 -7 -33 -1 -59 -4 -56 -8 2 -5 -11 -8 -29 -9 -18 0 -42 -2
-53 -5 -11 -2 -45 -6 -75 -8 -30 -3 -55 -5 -55 -6 0 -1 -11 -3 -25 -5 -14 -2
-41 -6 -60 -9 -19 -4 -60 -8 -90 -11 -30 -2 -55 -5 -55 -5 0 -1 -16 -3 -35 -4
-19 -2 -46 -6 -60 -11 -13 -4 -51 -9 -85 -11 -74 -4 -129 -10 -175 -19 -77
-16 -128 -2 -183 49 -15 14 -32 26 -38 26 -5 0 -9 7 -9 15 0 8 -4 15 -10 15
-5 0 -49 39 -97 86 l-88 86 45 20 c25 11 53 20 63 21 9 1 17 4 17 7 0 4 6 7
13 7 6 0 64 19 127 42 63 23 120 43 125 45 32 7 122 40 133 49 6 5 12 7 12 3
0 -3 15 0 34 8 19 8 37 12 40 8 3 -3 6 -1 6 5 0 5 7 10 15 11 8 1 22 3 30 4 8
1 15 6 15 11 0 6 3 8 6 4 4 -3 19 0 34 8 15 8 38 16 51 19 37 8 248 82 256 89
3 4 12 7 19 7 7 0 23 4 36 9 13 5 26 9 30 10 7 1 28 8 103 37 11 4 28 9 38 11
10 1 31 10 47 18 17 9 31 15 32 14 7 -2 64 15 73 22 6 4 22 10 35 12 14 3 39
11 55 18 38 16 46 18 70 21 11 2 23 7 26 11 3 5 12 10 20 11 36 7 75 19 84 27
6 4 24 9 40 11 17 2 32 6 35 9 9 11 152 59 160 54 5 -3 10 -1 12 3 3 10 198
78 211 74 4 -1 7 3 7 8 0 6 10 10 23 10 13 0 28 5 35 12 7 7 12 9 12 5 0 -3
20 2 44 13 24 10 46 16 49 14 3 -3 20 3 39 12 18 10 41 18 50 19 9 0 20 3 24
8 4 4 14 7 23 7 9 0 29 7 45 15 15 8 32 13 36 10 9 -6 25 13 18 21 -3 2 -21
-3 -41 -11 -21 -8 -37 -13 -37 -10 0 3 -13 -1 -30 -10 -16 -9 -30 -13 -30 -10
0 3 -16 -1 -35 -9 -20 -9 -39 -16 -43 -18 -4 -2 -6 -7 -4 -12 2 -5 -3 -4 -10
2 -8 6 -19 7 -28 2 -8 -5 -18 -6 -24 -3 -5 3 -6 1 -2 -6 5 -8 0 -10 -18 -7
-14 3 -26 0 -26 -5 0 -5 -6 -9 -12 -8 -7 1 -20 0 -28 -4 -17 -6 -122 -41 -130
-42 -33 -7 -77 -19 -85 -23 -5 -4 -14 -7 -20 -8 -49 -9 -66 -14 -75 -19 -9 -5
-165 -53 -195 -59 -5 -2 -44 -13 -85 -26 -41 -13 -77 -24 -80 -25 -3 0 -10 -4
-17 -8 -6 -4 -18 -4 -27 -1 -9 3 -16 1 -16 -5 0 -6 -9 -11 -20 -11 -11 0 -20
-5 -20 -11 0 -5 -5 -7 -10 -4 -6 4 -34 -2 -63 -11 -52 -18 -69 -23 -97 -28 -8
-2 -28 -9 -45 -15 -16 -7 -39 -14 -50 -16 -11 -1 -29 -6 -40 -10 -45 -16 -202
-63 -231 -70 -11 -2 -54 -15 -96 -29 -42 -14 -89 -28 -105 -30 -15 -3 -29 -10
-31 -15 -2 -6 -10 -7 -18 -4 -8 3 -14 1 -14 -5 0 -5 -11 -8 -25 -7 -14 2 -25
-2 -25 -8 0 -5 -3 -8 -6 -4 -4 3 -22 0 -40 -8 -19 -8 -34 -11 -34 -8 0 3 -7 0
-15 -7 -8 -7 -15 -10 -15 -6 0 3 -15 0 -34 -8 -19 -8 -37 -12 -40 -8 -3 3 -6
-1 -6 -8 0 -7 -3 -11 -6 -7 -3 3 -23 -1 -45 -8 -22 -8 -41 -14 -44 -15 -10 0
-21 -4 -90 -25 -33 -11 -63 -20 -67 -21 -5 -1 -11 -3 -15 -4 -5 -1 -11 -2 -15
-1 -5 0 -8 -3 -8 -8 0 -5 -8 -8 -17 -6 -10 1 -22 0 -28 -4 -13 -7 -21 -9 -77
-19 -35 -7 -61 -4 -107 10 -34 10 -61 23 -61 28 0 6 -5 10 -11 10 -6 0 -27 17
-48 38 -20 20 -53 48 -73 62 -33 22 -48 58 -26 61 19 3 25 6 58 27 19 12 39
22 43 22 5 0 22 9 38 21 16 11 29 17 29 12 0 -4 5 -1 10 7 5 8 13 15 17 15 8
1 168 85 213 113 14 9 25 14 25 11 0 -2 14 6 30 17 17 12 40 25 53 28 12 4 22
11 22 15 0 5 20 16 45 25 25 10 45 23 45 28 0 6 3 9 6 6 3 -4 33 9 66 28 33
19 64 34 68 34 5 0 15 6 22 13 7 7 49 30 93 52 44 22 82 42 85 45 17 18 43 33
36 22 -4 -7 9 -1 29 12 20 14 49 31 65 38 17 7 30 17 30 21 0 5 4 6 8 3 5 -3
18 3 29 14 12 10 24 16 27 13 3 -4 6 -1 6 6 0 7 5 9 10 6 6 -3 10 -1 10 4 0 6
3 10 8 9 7 -2 51 20 132 67 25 14 53 28 63 32 9 3 17 10 17 15 0 5 5 6 10 3 6
-3 10 -1 10 5 0 6 4 9 9 5 5 -3 17 2 25 11 9 8 16 12 16 7 0 -4 7 1 15 11 8
11 15 16 15 12 0 -5 7 -3 15 4 8 7 15 9 15 4 0 -5 5 -1 11 9 6 9 14 15 20 12
5 -4 9 -1 9 5 0 6 4 9 8 6 4 -2 19 4 32 15 14 10 20 19 15 19 -6 0 -16 -5 -23
-12 -6 -6 -21 -13 -33 -15 -11 -2 -27 -10 -35 -18 -9 -8 -20 -15 -26 -15 -5 0
-23 -9 -39 -21 -16 -11 -29 -18 -29 -14 0 3 -15 -2 -32 -12 -18 -9 -39 -18
-45 -19 -7 -1 -20 -9 -29 -18 -8 -9 -24 -16 -35 -16 -10 0 -19 -3 -19 -8 0 -6
-68 -41 -92 -48 -5 -1 -10 -3 -13 -4 -3 -1 -8 -3 -12 -4 -22 -6 -63 -30 -63
-38 0 -4 -3 -7 -8 -5 -11 3 -95 -35 -104 -48 -4 -5 -8 -7 -8 -2 0 4 -10 1 -23
-8 -13 -8 -27 -12 -30 -8 -4 3 -7 1 -7 -5 0 -7 -7 -12 -15 -12 -8 0 -15 -4
-15 -10 0 -5 -4 -9 -8 -7 -11 3 -195 -85 -204 -98 -4 -5 -8 -7 -8 -3 0 3 -32
-9 -71 -28 -39 -19 -76 -36 -82 -37 -6 -1 -19 -9 -29 -17 -10 -8 -22 -16 -26
-16 -27 -6 -52 -18 -52 -27 0 -6 -3 -8 -6 -4 -4 3 -30 -6 -58 -20 -28 -15 -53
-28 -56 -28 -3 -1 -50 -23 -105 -50 -55 -26 -102 -47 -104 -46 -2 2 -7 -1 -10
-6 -3 -4 -40 -24 -81 -43 -41 -19 -78 -39 -82 -45 -4 -5 -8 -6 -8 -2 0 4 -9 3
-21 -3 -23 -13 -102 -3 -93 11 3 5 -2 9 -10 9 -9 0 -16 5 -16 10 0 6 -7 10
-15 10 -8 0 -15 4 -15 9 0 5 -15 16 -32 25 -39 19 -78 51 -78 63 0 5 10 18 23
29 58 49 116 94 121 94 6 0 50 37 82 68 8 7 14 10 14 5 0 -4 4 -3 8 2 4 6 25
23 47 40 58 43 57 42 94 74 19 17 37 29 39 27 2 -2 13 6 26 18 31 29 65 56 72
56 5 0 12 5 69 55 22 19 46 35 53 35 6 0 12 3 12 8 0 10 136 112 150 112 5 0
10 4 10 8 0 5 20 23 45 41 24 17 51 39 60 47 8 9 15 12 15 8 0 -4 9 3 20 16
11 13 20 19 20 14 0 -5 5 -1 11 9 5 9 15 17 21 17 6 0 16 6 22 14 6 7 67 55
136 106 69 52 128 98 132 104 5 7 8 7 8 1 0 -5 5 -2 11 8 5 9 16 17 24 17 7 0
15 4 17 8 3 7 143 117 214 167 15 11 35 28 43 37 8 9 18 15 23 12 4 -3 8 0 8
5 0 6 5 11 10 11 6 0 18 8 28 18 11 9 31 26 46 36 15 11 37 28 48 38 11 9 29
20 39 23 11 4 17 11 14 16 -4 5 1 9 9 9 9 0 16 4 16 9 0 5 8 12 18 15 15 6 54
35 105 80 9 9 19 16 22 16 5 0 39 26 67 53 10 9 21 17 26 17 4 0 18 10 32 23
14 12 43 34 66 50 22 15 50 36 62 47 12 11 24 20 27 20 4 0 12 6 20 13 7 6 25
21 41 32 15 11 33 26 40 33 7 6 18 12 24 12 6 0 8 5 5 10 -3 6 1 10 9 10 8 0
24 10 36 22 11 12 20 18 20 13 0 -4 8 2 19 13 10 12 22 22 27 22 13 0 84 65
84 76 -1 5 -10 -2 -20 -15 -11 -13 -20 -20 -20 -17 0 4 -10 -2 -22 -13 -11
-11 -25 -18 -30 -15 -4 3 -8 1 -8 -3 0 -5 -12 -16 -27 -25 -16 -9 -37 -24 -48
-33 -50 -40 -161 -116 -177 -121 -10 -3 -18 -9 -18 -13 0 -4 -24 -23 -52 -41
-29 -19 -59 -40 -66 -47 -7 -7 -19 -13 -27 -13 -7 0 -15 -7 -19 -15 -3 -8 -12
-15 -20 -15 -8 0 -16 -3 -18 -7 -4 -11 -78 -65 -78 -58 0 3 -12 -6 -27 -20
-16 -14 -36 -28 -45 -31 -10 -3 -18 -10 -18 -15 0 -5 -5 -9 -10 -9 -6 0 -16
-5 -23 -10 -34 -28 -137 -99 -137 -95 0 3 -12 -5 -27 -19 -15 -14 -30 -23 -35
-20 -4 3 -8 1 -8 -4 0 -4 -33 -30 -72 -57 -40 -27 -92 -63 -114 -80 -23 -16
-50 -36 -60 -42 -11 -7 -61 -42 -112 -78 -51 -36 -95 -65 -98 -65 -3 0 -12 -6
-19 -12 -24 -22 -38 -32 -115 -83 -41 -28 -77 -52 -80 -55 -3 -3 -25 -19 -50
-35 -25 -16 -47 -32 -50 -35 -3 -3 -34 -25 -70 -50 -36 -24 -66 -48 -68 -52
-2 -4 -8 -8 -13 -8 -10 0 -181 -120 -191 -135 -5 -6 -8 -6 -8 0 0 6 -6 2 -13
-7 -8 -9 -20 -18 -28 -20 -8 -2 -21 -10 -29 -18 -8 -8 -35 -29 -60 -45 -25
-16 -48 -34 -52 -40 -4 -5 -8 -6 -8 -2 0 4 -12 -4 -27 -18 -15 -14 -33 -25
-40 -25 -7 0 -13 -4 -13 -9 0 -4 -27 -25 -60 -46 -33 -21 -60 -41 -60 -45 0
-4 -13 -13 -30 -20 -16 -7 -30 -16 -30 -21 0 -4 -8 -10 -17 -13 -10 -3 -30
-17 -45 -31 -16 -14 -28 -23 -28 -20 0 3 -10 -3 -22 -14 -11 -11 -24 -18 -28
-16 -4 3 -13 -1 -19 -9 -8 -9 -29 -13 -65 -11 -56 3 -117 31 -164 75 -26 25
-26 25 43 95 22 23 59 62 82 87 23 25 44 43 47 40 3 -3 6 1 6 8 0 7 21 34 48
59 26 26 48 50 50 54 1 4 3 6 5 5 1 -2 20 17 42 42 22 24 56 60 75 80 19 20
60 64 92 97 31 34 59 59 62 56 3 -4 6 -1 6 5 0 6 31 43 69 81 39 39 69 71 67
71 -1 0 38 42 88 94 187 193 275 287 276 291 0 3 2 4 4 3 2 -2 21 18 43 44 21
27 44 48 51 48 6 0 12 7 12 15 0 9 7 18 15 21 8 4 15 13 15 21 0 8 4 12 8 9 9
-6 42 29 42 44 0 6 4 10 9 10 5 0 24 16 43 35 18 19 84 87 145 150 62 63 110
115 105 115 -13 -1 -52 -38 -52 -50 0 -6 -4 -9 -8 -6 -4 2 -29 -18 -56 -45
-26 -27 -52 -49 -57 -49 -6 0 -8 -4 -4 -9 3 -5 -4 -12 -14 -16 -11 -3 -23 -15
-26 -25 -3 -10 -15 -22 -25 -25 -10 -3 -22 -15 -25 -26 -4 -11 -9 -18 -12 -16
-2 3 -35 -25 -73 -61 -37 -37 -101 -98 -141 -135 -134 -124 -289 -271 -390
-369 -55 -54 -104 -98 -110 -98 -6 0 -7 -4 -4 -10 3 -5 1 -10 -5 -10 -6 0 -25
-15 -43 -32 -18 -18 -54 -52 -80 -76 -26 -23 -47 -44 -47 -47 0 -3 -2 -5 -4
-6 -3 0 -27 -21 -54 -47 -27 -26 -115 -110 -196 -187 -81 -77 -164 -156 -184
-175 -86 -81 -104 -88 -158 -53 -11 7 -24 10 -27 6 -4 -3 -7 -2 -7 4 0 11 -57
37 -72 34 -21 -4 17 71 47 91 6 5 6 8 0 8 -7 0 -7 3 0 8 17 12 65 80 65 91 0
6 4 11 8 11 5 0 15 12 23 28 8 15 19 32 25 38 5 6 30 41 54 78 24 36 48 66 52
66 5 0 6 5 3 10 -3 6 -2 10 3 10 5 0 15 14 22 30 7 17 16 30 20 30 5 0 21 21
36 48 15 26 31 50 37 53 5 4 14 16 20 27 27 47 122 182 128 182 4 0 9 8 13 18
6 19 23 46 46 73 35 41 40 49 34 49 -4 0 5 14 21 30 16 17 25 30 19 30 -5 0
-2 6 6 13 9 7 29 33 45 59 17 27 33 48 38 48 4 0 7 7 7 15 0 8 5 15 11 15 5 0
7 5 4 10 -3 6 -2 10 4 10 5 0 20 17 32 38 13 20 28 42 34 49 25 30 31 39 32
46 1 5 13 22 27 38 14 16 26 31 25 35 -1 7 30 51 54 76 9 10 15 18 13 18 -4 0
127 192 157 230 7 9 30 43 52 75 22 33 43 62 48 63 4 2 7 10 7 18 0 8 5 14 11
14 5 0 8 4 5 9 -3 5 1 12 9 15 9 3 19 16 24 28 8 21 93 143 121 176 6 6 8 12
5 12 -3 0 -1 6 5 13 46 55 60 74 60 85 0 6 3 12 8 12 4 0 23 25 42 55 19 30
38 55 43 55 4 0 7 6 7 13 0 8 9 22 20 32 11 10 18 21 15 25 -2 3 5 13 16 20
10 8 19 20 19 27 0 7 4 13 9 13 5 0 12 8 16 19 3 10 13 28 23 39 9 11 24 30
32 42 8 12 21 28 28 36 6 7 12 17 12 23 0 6 5 11 10 11 6 0 10 7 10 15 0 8 5
15 10 15 6 0 10 4 10 10 0 10 20 37 52 71 9 9 14 20 10 23 -3 3 1 6 8 6 12 0
12 2 1 13 -11 10 -14 9 -18 -1 -3 -7 -11 -19 -20 -27 -8 -8 -11 -15 -7 -15 4
0 -1 -8 -12 -19 -28 -27 -54 -60 -54 -69 0 -4 -11 -20 -25 -35 -14 -15 -24
-27 -21 -27 4 0 -24 -35 -56 -71 -10 -10 -17 -22 -16 -26 0 -3 -8 -15 -18 -27
-11 -12 -62 -77 -114 -146 -52 -69 -99 -128 -104 -132 -6 -4 -7 -8 -3 -8 5 0
2 -6 -5 -13 -7 -8 -24 -28 -38 -46 -14 -18 -31 -39 -38 -47 -7 -8 -11 -14 -8
-14 3 0 -2 -9 -11 -19 -34 -37 -43 -50 -43 -61 0 -6 -4 -9 -8 -6 -4 3 -16 -11
-27 -30 -10 -19 -22 -34 -27 -34 -4 0 -8 -6 -8 -13 0 -7 -13 -26 -30 -42 -16
-16 -28 -30 -26 -33 3 -2 -6 -14 -20 -27 -13 -12 -24 -25 -24 -28 0 -7 -156
-215 -191 -254 -16 -18 -27 -33 -24 -33 3 0 -14 -26 -40 -57 -61 -78 -55 -70
-105 -138 -59 -79 -72 -95 -92 -117 -10 -10 -18 -22 -18 -26 0 -5 -8 -17 -18
-28 -10 -10 -67 -84 -127 -164 -61 -80 -114 -150 -120 -157 -5 -7 -16 -19 -22
-27 -7 -8 -13 -20 -13 -26 0 -5 -4 -10 -9 -10 -5 0 -19 -15 -30 -33 -11 -18
-28 -42 -38 -54 -45 -53 -53 -63 -49 -63 2 0 -9 -15 -26 -34 -16 -19 -31 -38
-31 -43 -1 -4 -12 -18 -26 -30 -13 -13 -21 -23 -17 -23 4 0 -3 -11 -16 -25
-34 -36 -48 -53 -48 -60 0 -3 -9 -16 -21 -28 -11 -12 -35 -42 -52 -67 -17 -25
-36 -50 -42 -56 -5 -6 -17 -22 -25 -34 -8 -12 -22 -30 -30 -40 -8 -9 -25 -31
-38 -48 -22 -28 -25 -29 -55 -18 -18 6 -34 13 -37 16 -3 3 -14 7 -25 8 -11 2
-31 12 -46 23 -20 14 -25 25 -21 44 2 14 8 25 13 25 5 0 8 3 7 8 -2 11 14 45
31 66 9 10 15 21 14 25 -1 7 21 57 88 196 24 50 42 93 41 98 -1 4 3 7 8 7 6 0
10 4 10 9 0 14 73 165 83 172 5 3 9 10 8 15 0 5 20 52 45 104 25 52 46 100 47
105 1 6 4 12 8 15 9 8 39 77 39 90 0 6 5 8 10 5 6 -4 10 -3 9 2 -4 16 13 63
23 63 5 0 6 5 3 10 -3 6 -2 10 2 10 5 0 9 9 10 20 1 11 9 27 17 36 9 8 16 19
16 24 0 5 26 64 59 132 82 172 145 306 167 353 10 22 23 43 28 47 6 4 8 8 3 8
-4 0 0 11 9 25 9 14 13 25 9 25 -5 0 -1 8 8 18 10 10 14 22 10 25 -3 4 -1 7 6
7 7 0 9 5 6 10 -3 6 0 12 7 15 8 3 15 15 15 27 1 12 8 25 15 29 7 5 9 9 5 9
-9 0 33 83 45 88 4 2 4 10 1 18 -3 8 0 14 6 14 6 0 11 7 11 15 0 8 5 15 10 15
6 0 10 3 9 8 -2 13 13 52 20 52 4 0 7 10 8 22 1 11 6 24 11 27 10 7 52 97 52
111 0 6 -5 8 -11 5 -6 -4 -8 -9 -5 -12 3 -3 -3 -17 -14 -31 -11 -13 -17 -28
-14 -33 3 -5 1 -9 -5 -9 -5 0 -15 -16 -22 -35 -7 -19 -17 -35 -21 -35 -4 0 -8
-9 -8 -19 0 -11 -6 -26 -13 -33 -11 -12 -27 -41 -114 -208 -15 -30 -32 -58
-38 -62 -5 -4 -6 -8 -1 -8 5 0 3 -8 -5 -17 -16 -21 -23 -33 -69 -123 -19 -36
-36 -67 -39 -70 -4 -3 -17 -27 -30 -55 -13 -27 -31 -58 -39 -67 -8 -10 -12
-18 -8 -18 4 0 -1 -12 -11 -27 -10 -16 -26 -44 -36 -63 -17 -35 -27 -52 -60
-102 -10 -16 -16 -28 -13 -28 4 0 -5 -18 -19 -40 -14 -22 -25 -42 -25 -44 0
-2 -15 -31 -34 -64 -19 -33 -32 -63 -28 -66 3 -3 1 -6 -5 -6 -5 0 -18 -18 -28
-40 -10 -22 -22 -40 -27 -40 -4 0 -7 -3 -6 -7 3 -13 -13 -53 -22 -53 -8 0 -23
-38 -21 -52 1 -5 -3 -8 -7 -8 -5 0 -14 -16 -22 -35 -8 -19 -16 -35 -19 -35 -4
0 -12 -15 -20 -32 -8 -18 -29 -58 -47 -90 -18 -31 -30 -58 -28 -61 2 -2 -2
-10 -11 -17 -8 -7 -15 -17 -15 -22 0 -6 -9 -22 -20 -38 -11 -15 -17 -30 -13
-34 3 -3 1 -6 -5 -6 -7 0 -12 -7 -12 -15 0 -8 -5 -15 -11 -15 -5 0 -8 -4 -5
-9 3 -5 -4 -20 -15 -35 -11 -14 -17 -26 -13 -26 4 0 0 -8 -8 -17 -8 -10 -23
-36 -33 -58 -10 -22 -21 -42 -25 -45 -3 -3 -17 -26 -29 -52 -13 -27 -27 -48
-32 -48 -6 0 -8 -4 -4 -9 12 -21 -28 -28 -78 -15 -28 7 -54 11 -59 8 -4 -3 -8
2 -8 11 0 9 -4 13 -10 10 -9 -6 -12 -1 -13 28 -1 23 15 77 23 77 4 0 8 10 8
23 0 12 7 42 15 67 22 65 41 134 39 143 -1 4 3 7 9 7 6 0 8 7 5 16 -4 9 -3 22
2 28 10 14 30 73 35 106 3 14 11 41 19 60 8 19 14 42 13 50 0 8 2 17 5 20 5 4
39 110 56 175 3 11 6 25 8 30 8 32 48 162 53 175 8 21 11 30 18 64 3 16 9 34
13 40 7 12 7 13 17 60 3 16 10 37 15 46 5 10 6 20 3 24 -3 3 -1 6 4 6 6 0 10
8 9 18 -2 9 1 24 5 32 5 8 20 56 35 105 14 50 33 110 41 135 8 25 17 56 19 69
3 13 9 32 15 43 5 10 7 18 3 18 -3 0 -2 6 4 13 6 6 10 15 10 20 1 4 8 33 17
65 10 31 18 62 20 67 10 43 19 65 27 65 5 0 7 4 3 9 -7 12 16 101 26 101 4 0
6 11 4 25 -1 14 1 25 5 25 4 0 11 15 15 33 4 17 9 38 11 45 2 6 6 20 8 30 3 9
5 18 6 20 2 1 3 5 4 10 12 46 28 100 33 112 8 19 7 16 22 70 6 25 15 52 18 60
4 8 8 20 8 25 3 20 18 70 24 80 6 11 10 27 16 63 2 13 8 29 15 36 6 8 10 18 9
22 -2 5 4 29 11 54 17 58 21 72 22 88 1 6 5 12 9 12 4 0 6 6 6 13 -1 6 11 53
27 102 35 109 36 114 26 120 -10 6 -19 -7 -26 -37 -8 -34 -10 -40 -27 -78 -8
-19 -13 -38 -11 -42 3 -5 0 -8 -7 -8 -7 0 -10 -3 -7 -6 3 -3 -7 -41 -22 -84
-15 -43 -25 -81 -22 -84 3 -3 0 -6 -7 -6 -7 0 -11 -6 -8 -14 3 -8 2 -16 -4
-18 -5 -2 -11 -14 -14 -27 -2 -13 -12 -47 -22 -75 -9 -28 -18 -53 -18 -56 -1
-3 -7 -18 -13 -33 -7 -16 -12 -34 -12 -42 0 -8 -5 -17 -10 -20 -6 -4 -8 -10
-6 -14 3 -4 -3 -23 -13 -42 -10 -19 -17 -44 -15 -56 2 -13 0 -23 -5 -23 -9 0
-16 -16 -26 -57 -5 -19 -41 -127 -52 -153 -3 -8 -5 -18 -5 -22 1 -5 -2 -8 -6
-8 -4 0 -8 -8 -9 -17 -1 -16 -103 -315 -120 -353 -4 -8 -7 -19 -8 -25 -1 -5
-9 -28 -18 -49 -10 -22 -15 -41 -13 -44 3 -2 -3 -21 -14 -42 -10 -20 -24 -58
-31 -84 -6 -25 -15 -46 -19 -46 -4 0 -10 -19 -14 -42 -4 -23 -11 -47 -16 -53
-4 -5 -8 -12 -9 -15 0 -6 -8 -32 -18 -57 -3 -10 -7 -21 -8 -25 -2 -5 -3 -9 -5
-10 -1 -2 -3 -11 -5 -21 -2 -10 -11 -34 -20 -53 -9 -19 -13 -39 -10 -44 3 -6
1 -10 -4 -10 -6 0 -11 -9 -11 -20 0 -11 -5 -20 -11 -20 -5 0 -8 -4 -5 -9 3 -4
-5 -36 -18 -70 -14 -33 -22 -61 -19 -61 3 0 0 -7 -7 -15 -7 -8 -10 -15 -7 -15
3 0 0 -12 -8 -27 -8 -15 -12 -30 -9 -35 3 -4 1 -8 -3 -8 -5 0 -9 -10 -10 -22
-1 -11 -8 -25 -15 -29 -7 -4 -9 -11 -6 -15 4 -3 1 -19 -8 -35 -8 -16 -12 -29
-8 -29 4 0 1 -6 -5 -13 -6 -8 -8 -17 -4 -20 3 -4 1 -7 -5 -7 -7 0 -11 -3 -10
-7 2 -7 -23 -91 -39 -133 -4 -8 -5 -18 -5 -22 1 -5 -3 -8 -9 -8 -5 0 -8 -4 -4
-9 3 -5 1 -12 -4 -15 -5 -4 -8 -14 -7 -24 2 -9 -1 -20 -6 -23 -5 -3 -11 -16
-14 -30 -8 -37 -15 -59 -34 -104 -5 -11 -18 -49 -30 -85 -35 -105 -41 -110
-102 -104 -29 3 -63 12 -76 21 -22 13 -23 20 -18 76 3 34 8 73 11 87 4 14 8
48 10 75 2 28 4 50 5 50 1 0 3 11 4 25 2 14 7 48 11 75 10 62 12 73 19 160 4
38 10 72 14 75 4 3 7 19 6 35 0 17 2 34 5 39 2 6 5 33 6 60 1 28 5 65 9 81 3
17 9 50 12 75 18 140 26 211 27 238 1 12 3 22 7 22 3 0 5 12 6 28 0 15 4 50 7
77 4 28 9 68 12 90 3 22 8 52 11 66 2 14 7 48 10 75 2 27 6 63 8 79 2 17 7 55
11 85 4 30 9 66 11 80 2 14 7 50 10 80 7 64 12 95 14 95 1 0 4 25 6 55 3 30 6
64 8 75 1 11 6 47 11 80 4 33 10 64 13 70 3 5 7 28 8 50 1 22 6 68 11 102 7
46 6 63 -2 67 -8 3 -12 -9 -10 -40 1 -25 -2 -47 -7 -50 -4 -3 -8 -21 -8 -40 0
-19 -3 -34 -7 -34 -5 0 -8 -12 -9 -27 -1 -29 -10 -91 -19 -133 -10 -40 -15
-73 -19 -107 -3 -18 -8 -47 -12 -65 -4 -18 -8 -42 -10 -53 -1 -11 -3 -21 -4
-22 -2 -2 -4 -7 -5 -13 -1 -5 -3 -11 -4 -12 -1 -2 -4 -24 -6 -51 -2 -26 -8
-55 -13 -65 -4 -9 -7 -27 -6 -39 0 -13 -3 -23 -8 -23 -5 0 -7 -4 -4 -9 4 -5 2
-31 -4 -58 -5 -26 -12 -59 -14 -73 -3 -14 -7 -34 -9 -45 -3 -11 -8 -41 -11
-68 -4 -26 -11 -58 -16 -72 -5 -14 -7 -25 -5 -25 2 0 0 -11 -5 -25 -6 -17 -6
-25 1 -25 6 0 7 -6 2 -12 -4 -7 -9 -22 -10 -33 -2 -11 -6 -27 -10 -35 -3 -8
-7 -24 -8 -35 -11 -85 -17 -119 -25 -141 -6 -14 -8 -29 -5 -34 3 -5 -1 -11 -7
-13 -10 -4 -10 -6 0 -6 10 -1 10 -6 2 -21 -6 -11 -9 -20 -6 -20 2 0 -2 -26 -9
-57 -7 -32 -11 -61 -9 -65 2 -3 0 -9 -6 -13 -6 -3 -8 -17 -6 -31 3 -13 0 -24
-5 -24 -6 0 -8 -4 -5 -8 2 -4 -2 -37 -9 -74 -8 -36 -16 -83 -19 -104 -2 -22
-5 -39 -6 -39 -2 0 -10 -37 -12 -62 -1 -13 -5 -23 -8 -23 -3 0 -6 -12 -6 -27
-2 -40 -10 -96 -17 -113 -6 -14 -12 -50 -22 -133 -2 -20 -9 -46 -15 -57 -6
-11 -8 -20 -4 -20 4 0 -3 -9 -16 -20 -12 -11 -26 -17 -31 -15 -4 3 -10 1 -14
-5 -4 -6 -12 -7 -18 -3 -7 4 -22 8 -35 9 -51 2 -57 23 -58 183 0 81 -4 153 -8
159 -4 7 -2 12 4 12 6 0 8 5 4 12 -4 6 -9 55 -10 107 -6 191 -15 603 -19 916
-7 439 -15 825 -20 915 -3 41 -7 174 -9 295 -2 121 -5 225 -6 230 -1 6 -1 15
0 20 5 28 4 145 -2 145 -4 0 -3 13 2 28 4 16 4 35 1 43 -4 8 -7 123 -7 256 1
134 -2 243 -6 243 -5 0 -8 5 -8 11 0 5 4 7 10 4 6 -3 7 1 4 9 -16 42 -22 0
-23 -181z m-74 -3536 c-4 6 28 9 81 7 109 -3 357 -20 357 -24 0 -2 40 -7 83
-11 17 -2 32 -6 32 -10 0 -4 8 -6 17 -5 9 2 35 -1 57 -6 23 -5 50 -11 61 -13
11 -2 20 -4 20 -5 0 -2 9 -4 20 -6 11 -1 31 -5 45 -9 14 -3 32 -8 40 -10 8 -2
16 -4 18 -5 3 -3 12 -6 57 -15 22 -4 53 -14 68 -22 16 -8 35 -12 43 -9 8 3 14
2 14 -2 0 -8 139 -57 153 -54 4 1 7 -3 7 -9 0 -5 4 -8 9 -4 5 3 12 1 16 -5 3
-5 17 -10 30 -10 13 0 25 -5 27 -11 2 -5 10 -11 18 -13 8 -1 32 -10 54 -19 21
-9 42 -17 47 -17 5 0 9 -4 9 -8 0 -4 10 -8 22 -9 11 -1 24 -7 28 -13 4 -7 10
-12 13 -11 13 1 82 -32 88 -41 3 -5 8 -9 10 -7 9 5 49 -13 49 -22 0 -5 8 -9
19 -9 10 0 24 -7 31 -15 7 -8 16 -12 21 -10 4 3 17 -3 29 -15 11 -11 20 -17
20 -14 0 4 6 1 13 -5 8 -6 17 -8 20 -4 4 3 7 0 7 -7 0 -7 3 -11 6 -7 3 3 14
-3 25 -14 11 -11 24 -17 29 -14 4 3 10 2 12 -2 4 -10 107 -73 119 -73 5 0 9
-4 9 -10 0 -5 4 -10 9 -10 12 0 225 -141 229 -152 2 -4 10 -8 18 -8 8 0 14 -3
14 -7 0 -5 18 -19 40 -33 22 -13 40 -28 40 -32 0 -4 7 -8 15 -8 8 0 15 -4 15
-8 0 -4 12 -15 28 -24 15 -9 41 -29 59 -45 17 -15 41 -35 54 -43 12 -8 32 -25
45 -37 13 -13 26 -23 29 -23 5 0 72 -60 127 -113 15 -15 28 -25 28 -23 0 3 22
-16 49 -42 27 -26 84 -79 126 -117 43 -39 101 -94 131 -122 30 -29 54 -50 54
-47 0 3 11 -7 24 -23 24 -28 25 -53 2 -34 -7 6 -16 8 -20 4 -4 -4 -11 -1 -16
7 -7 11 -10 12 -10 2 0 -8 -5 -10 -12 -5 -13 7 -22 10 -63 17 -11 2 -28 7 -37
11 -10 4 -29 8 -43 9 -14 0 -25 5 -25 10 0 5 -3 7 -6 4 -3 -4 -20 -2 -37 4
-32 10 -57 14 -90 17 -11 1 -16 6 -11 14 5 9 4 9 -6 0 -9 -8 -20 -9 -39 -2
-14 6 -37 12 -51 14 -64 9 -106 17 -115 23 -10 6 -54 13 -100 15 -16 1 -33 6
-36 10 -3 5 -21 10 -40 12 -19 2 -34 4 -34 5 0 1 -14 3 -31 5 -17 1 -44 6 -60
10 -36 10 -59 14 -104 19 -19 2 -35 5 -35 6 0 1 -16 3 -35 6 -19 2 -46 7 -60
10 -29 8 -46 11 -115 18 -27 3 -61 8 -75 11 -47 10 -148 23 -217 27 -13 1 -23
4 -23 8 0 3 -12 5 -27 6 -16 0 -55 3 -88 7 -33 4 -89 10 -125 13 -84 7 -107
11 -121 20 -8 5 -9 3 -4 -6 5 -9 4 -11 -3 -6 -14 8 -113 18 -204 20 -38 0 -68
3 -68 6 0 3 -19 6 -42 7 -139 3 -188 7 -188 12 0 3 -109 6 -243 6 -150 0 -245
4 -249 10 -5 7 -8 7 -8 0 0 -6 -112 -10 -318 -10 -174 1 -328 -2 -342 -7 -14
-4 -61 -9 -105 -11 -44 -3 -123 -8 -175 -12 -52 -3 -120 -8 -150 -10 -30 -2
-55 -4 -55 -5 0 -3 -73 -12 -210 -25 -38 -4 -79 -9 -90 -11 -57 -12 -84 -16
-125 -19 -25 -2 -45 -4 -45 -5 0 -1 -9 -3 -20 -5 -11 -1 -38 -5 -60 -9 -22 -3
-49 -8 -61 -10 -12 -2 -45 -7 -75 -11 -30 -4 -55 -10 -57 -14 -1 -5 -14 -6
-27 -3 -14 2 -31 0 -38 -6 -6 -5 -27 -9 -44 -7 -18 1 -33 -1 -33 -5 0 -4 -6
-7 -12 -7 -41 -3 -68 -8 -68 -14 0 -3 -10 -5 -21 -4 -12 1 -44 -5 -73 -12 -28
-7 -64 -16 -81 -18 -16 -3 -37 -6 -45 -8 -8 -2 -33 -7 -55 -12 -22 -4 -44 -10
-50 -14 -5 -3 -19 -7 -30 -8 -29 -3 -58 -9 -75 -16 -13 -4 -46 -13 -132 -33
-39 -9 -55 -13 -100 -27 -27 -8 -48 -13 -48 -10 0 3 -7 0 -15 -7 -8 -6 -19 -9
-24 -6 -5 4 -12 2 -15 -3 -3 -4 -20 -12 -38 -16 -18 -4 -40 -9 -48 -12 -8 -2
-26 -6 -40 -8 -13 -2 -26 -9 -28 -14 -2 -6 -8 -8 -13 -5 -6 3 -15 1 -22 -4 -7
-5 -20 -8 -29 -7 -10 2 -18 -2 -18 -8 0 -5 -3 -7 -6 -4 -4 3 -14 2 -24 -3 -9
-5 -29 -11 -44 -14 -16 -3 -38 -12 -51 -20 -19 -13 -24 -13 -28 -1 -3 7 1 16
10 19 9 4 14 9 11 12 -5 5 257 275 276 284 5 3 33 28 61 55 82 79 146 135 157
135 5 0 6 5 3 10 -3 6 -3 10 2 10 7 0 33 20 93 72 21 18 149 118 237 186 13 9
38 29 55 44 18 15 36 28 40 28 4 0 13 6 20 13 7 7 69 50 138 95 69 45 130 86
137 92 7 5 15 10 17 10 3 0 30 16 60 35 29 19 56 31 60 28 3 -4 6 -2 6 4 0 10
49 38 63 35 4 -1 7 3 7 8 0 6 7 10 15 10 8 0 15 4 15 8 0 7 59 34 69 31 2 0 7
3 10 8 3 5 58 35 121 65 173 84 222 106 253 113 15 4 30 11 33 16 3 5 10 7 15
4 5 -4 9 -1 9 5 0 6 5 8 10 5 6 -3 10 -1 10 5 0 6 3 9 8 6 4 -2 23 3 42 11 35
16 48 21 75 26 8 2 18 6 21 10 4 4 16 7 26 7 10 0 18 5 18 11 0 6 6 9 13 6 6
-2 30 2 52 10 46 17 47 17 98 28 20 4 40 11 42 16 3 4 15 6 27 4 12 -3 26 -1
32 4 11 9 145 35 181 36 11 0 22 3 25 6 4 6 56 14 145 24 17 2 75 6 130 10 55
4 102 8 104 10 2 3 13 0 24 -6 10 -6 17 -7 14 -2z m-708 -1331 c4 -3 -2 -27
-15 -53 -13 -27 -24 -51 -24 -54 0 -3 21 -7 47 -8 25 0 52 -6 58 -11 7 -5 14
-7 18 -4 7 7 117 -24 117 -34 0 -4 18 -16 40 -26 22 -11 40 -23 40 -28 0 -5
14 -21 30 -35 17 -13 30 -31 30 -39 0 -8 4 -14 8 -14 9 0 48 -79 60 -120 13
-50 7 -194 -12 -247 -10 -29 -22 -53 -27 -53 -5 0 -8 -3 -6 -8 2 -9 -14 -30
-63 -78 -33 -33 -151 -99 -195 -109 -11 -2 -37 -9 -57 -14 -20 -5 -39 -7 -41
-5 -2 3 -9 -2 -16 -9 -9 -11 -8 -17 4 -27 8 -7 15 -18 15 -25 0 -7 7 -15 15
-19 8 -3 15 -12 15 -19 0 -8 15 -30 34 -50 18 -20 31 -38 28 -41 -3 -4 -1 -6
5 -6 5 0 31 -20 56 -45 26 -25 52 -45 57 -45 6 0 13 -7 16 -15 4 -8 10 -13 14
-10 4 3 11 -2 14 -11 3 -8 10 -13 14 -10 5 3 19 -4 30 -15 12 -10 24 -19 27
-19 3 0 30 -11 60 -25 31 -14 61 -25 69 -25 7 0 16 -3 20 -7 3 -4 13 -8 21 -9
7 -1 29 -7 47 -13 18 -5 47 -12 63 -15 17 -2 30 -5 30 -6 0 -7 214 -5 233 2
14 5 22 4 22 -3 0 -8 4 -8 13 -1 7 6 24 13 37 15 51 10 86 19 105 27 11 5 45
19 75 31 30 12 59 26 63 30 9 7 -18 57 -38 71 -6 5 -6 8 0 8 6 0 6 3 -1 8 -11
8 -46 78 -51 102 -8 39 -10 96 -5 105 6 10 8 15 11 34 2 12 101 115 101 105 0
-5 6 -2 13 6 7 8 19 17 27 19 35 9 121 13 138 5 9 -4 19 -8 22 -8 15 -4 90
-51 90 -57 0 -4 9 -11 20 -14 11 -3 20 -13 20 -22 0 -13 3 -13 15 -3 8 7 15
19 15 26 0 8 5 14 11 14 5 0 8 4 4 9 -3 5 1 16 9 24 8 8 12 18 8 21 -3 4 -1
10 5 14 11 8 52 163 59 227 9 83 9 135 0 135 -4 0 -3 6 3 13 6 8 7 17 3 21 -4
4 -7 15 -8 24 0 9 -4 29 -8 43 -4 14 -9 34 -11 45 -2 10 -4 20 -5 22 -2 1 -3
5 -4 10 -14 52 -31 100 -51 145 -13 30 -21 58 -18 61 4 3 1 6 -6 6 -7 0 -9 5
-6 10 3 6 1 10 -4 10 -6 0 -11 12 -11 26 0 16 -4 23 -11 18 -7 -4 -10 -1 -7 7
3 8 12 12 19 10 8 -2 41 -4 74 -6 85 -3 206 -16 230 -24 11 -4 53 -6 92 -6 40
0 73 -3 73 -7 0 -4 7 -5 15 -2 9 4 15 0 15 -9 0 -9 -10 -14 -27 -14 -15 0 -29
-6 -31 -12 -2 -6 -12 -11 -23 -11 -10 0 -19 -5 -19 -12 0 -6 -3 -8 -6 -5 -4 3
-16 1 -28 -5 -11 -7 -24 -13 -28 -14 -5 -1 -10 -3 -13 -4 -6 -3 -22 -7 -35 -9
-5 0 -10 -8 -10 -17 0 -12 4 -14 13 -7 11 9 44 20 72 23 6 1 15 6 21 11 6 5
23 10 38 11 14 1 26 6 26 10 0 4 3 7 8 7 14 -3 72 14 72 20 0 15 192 21 202 7
5 -7 8 -7 8 2 0 7 5 10 11 7 6 -4 42 -9 81 -11 76 -4 102 -17 106 -56 1 -13 8
-57 15 -98 8 -41 13 -94 13 -118 -1 -23 2 -42 6 -42 7 0 8 -220 0 -233 -2 -5
-5 -34 -7 -65 -1 -32 -8 -84 -15 -117 -7 -33 -13 -64 -14 -70 -1 -5 -5 -16 -9
-22 -5 -7 -4 -13 1 -13 5 0 3 -15 -6 -34 -19 -41 -50 -59 -78 -43 -19 11 -32
15 -72 21 -12 1 -25 6 -29 9 -3 4 -15 7 -25 7 -10 0 -18 4 -18 8 0 4 -10 8
-22 9 -33 1 -60 8 -83 20 -11 6 -26 8 -32 6 -7 -3 -13 0 -13 7 0 6 -5 8 -10 5
-6 -4 -24 0 -40 9 -19 9 -28 10 -23 3 4 -7 0 -7 -10 1 -9 8 -21 11 -27 7 -5
-3 -10 -2 -10 3 0 6 -17 13 -37 17 -21 4 -43 11 -50 16 -7 7 -14 6 -19 -2 -4
-8 -3 -9 4 -5 7 4 12 1 12 -7 0 -7 6 -14 13 -15 25 -1 61 -12 66 -19 3 -5 17
-10 30 -11 14 -2 36 -9 50 -15 14 -5 29 -10 34 -9 4 1 7 -3 7 -8 0 -6 6 -10
13 -9 6 1 19 0 27 -3 8 -4 24 -9 35 -14 26 -9 25 -9 58 -18 15 -5 27 -11 27
-15 0 -4 9 -8 20 -9 11 -1 29 -3 40 -4 11 -1 20 -5 20 -9 0 -8 59 -24 73 -21
5 2 6 -2 2 -8 -3 -5 -2 -10 3 -10 14 0 24 -29 15 -43 -4 -7 -8 -16 -9 -22 -1
-5 -14 -37 -29 -70 -16 -33 -29 -62 -29 -65 -1 -3 -7 -15 -14 -27 -7 -13 -9
-23 -5 -23 4 0 3 -4 -3 -8 -6 -4 -25 -34 -44 -67 -19 -33 -38 -63 -44 -67 -6
-4 -7 -8 -3 -8 5 0 2 -6 -5 -14 -7 -7 -20 -24 -28 -36 -19 -28 -110 -143 -118
-150 -4 -3 -28 -28 -54 -57 -27 -29 -48 -50 -48 -48 0 2 -25 -20 -55 -50 -30
-30 -66 -57 -81 -61 -29 -8 -32 -5 -129 116 -33 41 -64 80 -70 86 -5 6 -21 26
-35 44 -14 18 -31 39 -37 46 -7 7 -13 18 -13 24 0 6 -4 8 -10 5 -5 -3 -10 0
-10 7 0 8 -9 20 -20 28 -11 8 -20 20 -20 26 0 7 -4 14 -8 16 -4 2 -24 23 -43
48 -35 46 -69 68 -50 32 5 -10 17 -24 26 -32 8 -7 25 -30 37 -51 12 -22 25
-39 30 -39 4 0 8 -5 8 -11 0 -6 6 -16 13 -24 27 -29 47 -56 47 -64 0 -5 3 -11
8 -13 11 -5 67 -92 64 -100 -1 -5 2 -8 7 -8 5 0 23 -22 40 -49 17 -26 43 -61
56 -77 30 -35 31 -58 5 -91 -11 -14 -20 -23 -20 -19 0 4 -24 -9 -53 -27 -29
-19 -71 -42 -92 -53 -22 -10 -43 -23 -47 -28 -4 -6 -8 -8 -8 -4 0 4 -17 -1
-37 -12 -36 -18 -142 -61 -153 -62 -3 0 -16 -5 -30 -10 -14 -5 -36 -11 -50
-13 -14 -2 -49 -10 -77 -18 -29 -8 -53 -10 -53 -5 0 5 -9 4 -20 -2 -11 -6 -20
-8 -20 -6 0 3 -11 1 -24 -4 -14 -5 -48 -10 -76 -11 -28 -2 -53 -5 -55 -9 -5
-7 -114 -5 -122 3 -3 4 -6 27 -7 52 0 24 -3 45 -6 45 -4 0 -8 106 -12 363 0
42 -5 77 -9 77 -9 0 -11 -11 -13 -100 -1 -30 -5 -61 -10 -68 -4 -6 -3 -12 3
-12 6 0 6 -11 1 -30 -5 -18 -5 -32 1 -36 5 -3 7 -9 4 -14 -6 -10 -17 -144 -18
-222 -1 -65 -14 -70 -162 -54 -27 3 -63 8 -80 11 -16 3 -41 7 -55 9 -14 2 -25
5 -25 6 0 1 -18 4 -40 6 -22 3 -44 9 -50 15 -5 5 -20 9 -32 9 -13 0 -37 7 -53
15 -17 9 -30 13 -30 10 0 -3 -10 0 -22 7 -13 6 -28 13 -34 14 -23 4 -179 77
-182 86 -2 4 -12 8 -23 8 -10 0 -19 5 -19 10 0 6 -5 10 -11 10 -6 0 -41 21
-79 47 -46 32 -67 52 -65 64 3 15 52 97 65 109 3 3 30 43 60 90 29 47 56 87
60 90 4 3 10 14 14 25 3 11 16 32 30 46 13 14 29 36 36 50 7 13 26 41 42 62
16 20 26 37 21 37 -4 0 0 5 10 11 9 5 17 15 17 22 0 6 -20 -11 -45 -38 -25
-28 -45 -53 -45 -56 0 -3 -8 -15 -17 -27 -10 -11 -25 -30 -33 -42 -8 -13 -25
-33 -37 -46 -13 -13 -23 -26 -23 -30 0 -3 -14 -19 -30 -34 -17 -16 -31 -33
-31 -37 0 -4 -13 -23 -29 -41 -17 -19 -30 -36 -30 -38 0 -4 -18 -27 -64 -80
-26 -32 -66 -46 -66 -25 0 5 -9 13 -20 16 -11 3 -20 13 -20 21 0 8 -5 14 -10
14 -6 0 -44 34 -85 75 -42 41 -73 75 -71 75 2 0 -12 18 -32 39 -47 50 -122
155 -122 170 0 6 -3 11 -7 11 -5 0 -21 26 -38 58 -16 31 -38 68 -47 81 -10 13
-15 27 -12 32 3 5 0 9 -5 9 -6 0 -10 3 -9 8 0 4 -6 24 -16 44 -9 21 -15 39
-14 41 2 2 -4 12 -12 21 -8 10 -15 23 -16 30 -1 6 -4 23 -7 38 -7 35 9 52 63
68 25 8 50 17 55 21 6 4 23 10 39 13 15 3 34 10 42 17 8 6 14 8 14 5 0 -4 6
-4 13 1 6 4 20 9 30 10 10 2 31 10 47 18 16 8 37 15 47 15 10 0 27 6 38 14 11
7 28 12 38 10 9 -1 17 2 17 7 0 5 11 9 25 9 14 0 25 4 25 10 0 5 7 7 15 4 8
-4 15 -1 15 5 0 6 11 11 24 11 13 0 30 8 37 18 12 15 12 16 -1 6 -8 -6 -33
-15 -55 -19 -43 -9 -43 -9 -65 -18 -8 -3 -28 -9 -45 -13 -37 -9 -42 -10 -82
-22 -17 -6 -34 -8 -37 -4 -3 3 -6 1 -6 -5 0 -5 -6 -10 -12 -10 -24 -1 -77 -13
-103 -23 -15 -6 -30 -8 -35 -5 -5 3 -11 1 -15 -5 -4 -6 -10 -8 -15 -5 -5 3
-11 1 -15 -4 -3 -5 -14 -8 -25 -6 -10 2 -23 -2 -29 -9 -6 -7 -21 -12 -33 -10
-13 1 -28 3 -33 3 -13 1 -36 61 -29 72 3 5 1 9 -4 9 -5 0 -8 14 -7 30 1 17 -1
30 -5 30 -4 0 -6 10 -6 23 1 12 0 26 -3 32 -7 14 -10 37 -16 164 -3 63 -8 117
-10 122 -3 4 1 10 7 13 11 5 11 7 0 12 -6 3 -9 11 -5 17 4 6 8 36 9 67 3 76
15 174 23 180 3 3 7 18 8 34 4 52 35 70 143 81 14 2 53 6 88 9 35 4 83 11 107
15 24 5 48 4 52 0 5 -5 20 -10 33 -13 14 -2 27 -5 30 -6 8 -3 24 -7 38 -8 7
-1 10 -7 6 -14 -4 -7 -3 -8 5 -4 6 4 27 2 47 -4 19 -7 41 -13 47 -14 7 -2 21
-6 32 -10 44 -17 48 -17 36 -2 -6 7 -32 19 -56 26 -25 7 -45 17 -45 21 0 5 -6
9 -13 9 -17 0 -67 23 -67 31 0 3 15 6 33 7 17 1 61 7 97 13 36 6 91 12 122 12
32 1 58 4 58 7 0 7 118 12 129 6z m2661 -124 c8 -2 29 -5 45 -7 108 -13 179
-27 191 -37 7 -5 24 -7 38 -4 14 3 26 1 26 -2 0 -4 12 -9 26 -10 14 -1 31 -5
37 -9 6 -4 20 -8 31 -9 12 -1 32 -5 46 -8 14 -4 36 -9 50 -11 14 -2 36 -8 50
-13 14 -5 30 -10 35 -11 46 -4 95 -14 95 -20 0 -4 8 -7 18 -7 17 -1 77 -12 97
-18 24 -7 235 -57 260 -61 35 -6 50 -10 60 -16 6 -4 20 -5 33 -4 12 1 22 -2
22 -7 0 -5 6 -8 13 -7 6 1 30 -2 52 -6 22 -5 43 -8 48 -7 4 1 7 -2 7 -7 0 -5
8 -8 18 -6 9 2 24 4 33 4 9 1 27 21 39 44 13 24 30 44 39 45 39 5 76 1 88 -10
7 -6 13 -8 13 -4 0 4 17 -2 38 -13 40 -20 111 -81 96 -81 -5 0 -1 -5 9 -11 9
-5 17 -17 17 -24 0 -8 4 -15 10 -15 5 0 14 -19 21 -42 15 -56 20 -148 7 -148
-5 0 -7 -4 -3 -10 9 -15 -40 -103 -81 -144 -45 -45 -83 -66 -149 -81 -98 -22
-167 -6 -269 60 -31 20 -52 11 -106 -46 -25 -26 -63 -61 -84 -78 -21 -17 -36
-31 -32 -31 4 0 -7 -12 -24 -27 -18 -14 -49 -42 -70 -62 -69 -65 -165 -149
-240 -210 -25 -20 -47 -38 -50 -41 -8 -9 -64 -53 -100 -80 -29 -22 -88 -68
-126 -99 -7 -6 -15 -7 -18 -4 -3 4 -6 1 -6 -5 0 -5 -16 -20 -35 -32 -20 -12
-41 -27 -48 -33 -16 -16 -161 -111 -165 -109 -1 2 -12 -7 -24 -18 -12 -11 -34
-26 -50 -32 -15 -7 -28 -16 -28 -20 0 -5 -7 -8 -15 -8 -8 0 -15 -4 -15 -8 0
-4 -12 -13 -27 -20 -16 -6 -46 -23 -68 -37 -22 -14 -51 -31 -65 -38 -14 -6
-28 -16 -32 -22 -5 -6 -8 -6 -8 0 0 6 -3 5 -8 -1 -7 -11 -110 -68 -124 -69 -3
0 -10 -3 -14 -8 -12 -11 -118 -61 -126 -59 -5 1 -8 -2 -8 -8 0 -6 -3 -10 -7
-9 -14 2 -53 -13 -53 -20 0 -4 -6 -8 -12 -8 -7 0 -29 -7 -48 -15 -35 -15 -122
-50 -210 -83 -25 -9 -53 -19 -63 -21 -10 -1 -31 -10 -48 -18 -16 -8 -27 -11
-24 -6 3 5 -8 2 -25 -6 -16 -8 -39 -16 -50 -17 -11 -1 -20 -5 -20 -10 0 -4 -4
-5 -10 -2 -5 3 -16 3 -22 -2 -12 -7 -31 -10 -78 -15 -8 0 -17 -5 -20 -9 -3 -4
-19 -10 -35 -13 -17 -2 -30 -5 -30 -6 0 -1 -12 -3 -27 -5 -16 -2 -37 -6 -47
-10 -11 -3 -22 -2 -25 4 -5 8 25 21 48 20 5 -1 12 4 15 10 4 6 16 12 26 14 11
2 31 9 45 17 14 8 31 15 38 16 14 3 41 14 132 58 86 42 114 58 122 70 4 6 8 7
8 3 0 -8 179 111 206 137 30 28 55 46 65 46 5 0 7 5 4 10 -3 6 -2 10 2 10 18
0 164 150 233 240 19 25 37 47 40 50 15 15 70 100 70 109 0 6 5 11 10 11 6 0
10 7 10 15 0 8 5 15 10 15 6 0 10 7 10 15 0 8 5 15 11 15 5 0 8 4 5 9 -3 5 2
19 12 32 16 22 102 200 102 213 0 2 5 17 12 33 6 15 12 33 14 38 1 6 15 51 29
100 15 50 28 97 30 105 5 27 17 114 20 145 2 17 4 30 5 30 16 0 14 463 -3 492
-2 4 -8 32 -11 62 -5 39 -3 57 6 62 7 4 15 5 18 1 3 -4 12 -9 20 -10z m-3728
-44 c-1 -13 -3 -41 -6 -63 -3 -22 -5 -121 -5 -220 1 -99 1 -195 1 -212 -1 -18
2 -33 6 -33 4 0 7 -22 7 -50 0 -27 2 -50 5 -50 3 0 5 -12 4 -27 -1 -16 3 -34
9 -40 5 -7 7 -13 4 -13 -3 0 1 -28 10 -62 8 -35 16 -72 17 -83 2 -11 8 -30 14
-42 7 -12 11 -26 11 -30 -2 -9 5 -31 27 -81 8 -18 12 -38 9 -43 -4 -5 -1 -9 4
-9 6 0 11 -9 11 -19 0 -11 5 -23 10 -26 6 -3 10 -15 10 -25 0 -10 3 -20 8 -22
9 -4 56 -100 54 -110 -1 -5 3 -8 8 -8 6 0 10 -5 10 -10 0 -12 90 -148 140
-211 41 -51 246 -259 256 -259 4 0 15 -9 25 -21 9 -11 21 -21 26 -22 9 -1 23
-12 57 -44 13 -12 26 -20 28 -18 2 2 17 -7 32 -20 16 -14 33 -25 37 -25 4 0
14 -6 21 -12 15 -14 53 -37 108 -64 19 -10 38 -23 42 -28 4 -6 8 -8 8 -3 0 4
17 -3 38 -16 20 -13 40 -25 44 -26 31 -8 78 -33 78 -42 0 -5 4 -8 10 -4 5 3
19 0 32 -6 48 -25 58 -29 78 -29 12 0 20 -7 20 -17 0 -15 -2 -16 -10 -3 -7 11
-10 11 -10 2 0 -9 -5 -10 -17 -4 -10 5 -24 7 -30 5 -7 -3 -13 -1 -13 4 0 4
-19 9 -43 11 -23 1 -44 7 -45 12 -2 6 -7 8 -11 6 -8 -5 -119 21 -136 32 -5 4
-19 8 -30 9 -11 2 -47 13 -80 24 -75 26 -85 29 -88 28 -1 -1 -29 11 -61 25
-33 15 -61 24 -64 21 -3 -3 -14 3 -25 12 -10 10 -22 17 -26 17 -8 -2 -40 11
-111 44 -30 14 -57 26 -60 27 -23 3 -240 119 -240 127 0 6 -3 8 -6 5 -7 -7
-87 32 -92 46 -2 4 -10 7 -17 7 -7 0 -15 3 -17 8 -1 4 -21 17 -43 29 -22 12
-57 31 -77 43 -21 11 -38 25 -38 31 0 6 -4 8 -9 5 -5 -3 -14 1 -21 9 -7 8 -19
15 -26 15 -8 0 -14 5 -14 10 0 6 -5 10 -10 10 -6 0 -35 18 -64 40 -29 22 -58
40 -63 40 -6 0 -14 7 -17 16 -3 8 -10 13 -15 9 -6 -3 -14 3 -20 12 -6 10 -11
15 -11 11 0 -5 -8 0 -18 10 -10 9 -29 24 -42 32 -13 8 -32 23 -42 33 -10 9
-21 17 -24 17 -7 0 -88 63 -92 73 -2 4 -9 7 -15 7 -7 0 -18 9 -25 20 -7 11
-19 20 -28 20 -8 0 -12 5 -9 10 3 6 1 10 -4 10 -10 0 -25 11 -75 55 -13 11
-42 36 -65 55 -155 130 -421 383 -421 401 0 5 -7 9 -15 9 -8 0 -15 3 -15 8 0
4 -28 37 -62 74 -160 170 -159 168 -149 186 8 16 119 68 161 77 8 2 26 8 40
13 14 5 28 10 32 11 4 1 28 10 53 21 25 11 49 20 53 20 4 1 45 12 91 27 47 14
92 27 100 28 9 2 16 4 16 5 0 1 7 3 15 5 8 1 37 10 63 19 27 9 53 14 58 11 5
-4 9 -2 9 2 0 5 26 14 58 22 31 7 77 19 102 27 25 8 54 15 65 17 11 2 38 9 60
15 59 17 206 52 235 56 24 4 46 8 108 22 15 4 46 7 70 8 23 0 42 5 42 11 0 5
5 4 11 -2 6 -6 11 -22 11 -35z m1073 -2235 c57 -9 75 -48 46 -100 -6 -13 -9
-23 -5 -23 3 0 1 -6 -5 -13 -6 -8 -9 -16 -6 -19 3 -3 -1 -21 -10 -40 -8 -20
-17 -50 -20 -68 -3 -18 -12 -47 -19 -65 -8 -19 -12 -36 -8 -39 3 -3 -4 -6 -16
-6 -12 0 -21 3 -20 8 1 4 -3 18 -9 32 -6 14 -10 27 -10 30 0 3 -6 16 -13 30
-8 14 -15 27 -15 30 -1 3 -10 25 -21 50 -10 25 -18 48 -16 53 1 4 -2 7 -6 7
-4 0 -9 14 -10 30 -4 49 39 96 96 106 8 1 16 5 19 8 3 3 11 2 17 -1 6 -4 20
-9 31 -10z m-601 -681 c4 -13 29 -59 54 -103 26 -45 53 -92 60 -105 7 -13 17
-24 22 -24 5 0 12 -9 15 -20 3 -11 13 -20 21 -20 8 0 14 -4 14 -8 0 -13 56
-72 68 -72 7 0 12 -4 12 -8 0 -5 18 -21 41 -38 51 -36 69 -53 69 -63 0 -8 -51
-35 -59 -31 -2 1 -7 -4 -11 -10 -4 -7 -22 -13 -39 -14 -17 0 -31 -3 -31 -6 0
-3 -15 -5 -32 -4 -18 1 -33 3 -33 4 0 1 -17 3 -39 5 -21 2 -42 9 -47 17 -5 7
-9 9 -9 5 0 -4 -10 -2 -22 5 -13 7 -26 11 -30 10 -5 -1 -8 4 -8 10 0 7 -13 22
-29 33 -17 11 -28 21 -26 23 2 2 -8 20 -21 39 -13 20 -24 44 -24 54 0 10 -4
20 -9 23 -15 9 -3 179 15 207 5 8 9 21 9 29 0 8 6 24 11 35 6 11 14 33 18 48
5 23 9 26 20 14 7 -7 17 -23 20 -35z"/>
<path d="M6296 8013 c-1 -1 -17 -4 -35 -5 -18 -1 -35 -6 -37 -10 -3 -5 -13 -4
-23 2 -10 5 -21 7 -24 4 -3 -3 -31 -7 -63 -10 -130 -10 -165 -14 -230 -29 -12
-3 -39 -7 -60 -11 -34 -5 -59 -10 -139 -29 -11 -3 -32 -7 -47 -10 -15 -3 -40
-10 -55 -16 -32 -12 -58 -19 -93 -24 -13 -2 -26 -9 -28 -14 -2 -6 -8 -8 -13
-5 -6 3 -16 0 -24 -6 -8 -7 -15 -10 -15 -6 0 3 -17 0 -37 -8 -39 -14 -68 -24
-81 -27 -4 -1 -54 -22 -112 -46 -58 -24 -109 -45 -115 -47 -5 -1 -37 -16 -70
-31 -33 -16 -62 -29 -65 -30 -15 -3 -141 -69 -146 -76 -3 -5 -10 -7 -15 -4 -5
4 -9 1 -9 -4 0 -6 -3 -10 -7 -9 -5 1 -19 -4 -33 -12 -47 -27 -105 -59 -130
-72 -14 -7 -27 -15 -30 -18 -3 -3 -22 -14 -42 -25 -21 -11 -38 -24 -38 -29 0
-5 -3 -7 -6 -3 -3 3 -76 -41 -162 -99 -85 -57 -159 -104 -164 -104 -5 0 -6 -4
-3 -10 3 -5 1 -10 -5 -10 -9 0 -88 -54 -139 -96 -9 -7 -43 -33 -76 -58 -33
-24 -70 -54 -82 -65 -12 -12 -27 -21 -33 -21 -6 0 -8 -4 -5 -10 3 -5 2 -10 -4
-10 -5 0 -25 -14 -43 -31 l-33 -30 29 11 c16 6 35 9 43 6 7 -3 13 0 13 6 0 6
2 9 6 6 3 -3 26 1 52 9 26 8 58 16 72 18 14 2 43 9 65 15 41 11 85 20 120 23
11 1 22 5 25 8 3 4 23 10 45 13 22 4 56 9 75 13 45 9 40 8 75 16 30 7 61 12
125 23 19 3 43 11 54 16 13 7 16 7 12 -1 -5 -8 0 -8 19 -1 14 5 29 9 33 9 4
-1 9 -1 12 1 3 1 21 3 41 5 20 1 47 6 60 11 24 7 31 8 119 19 85 9 112 13 148
21 21 4 55 8 78 9 22 1 46 5 52 9 7 4 12 2 12 -4 0 -6 5 -8 13 -3 6 4 19 8 27
10 8 1 35 5 60 9 25 4 72 8 105 10 33 1 60 3 60 4 0 1 32 3 70 5 39 1 81 5 95
9 28 7 165 15 395 21 83 2 197 7 255 11 58 3 110 6 115 6 19 -2 90 -2 125 -1
19 1 37 0 40 -1 13 -4 189 -11 317 -13 78 -1 145 -5 148 -9 4 -4 15 -3 25 2
10 5 20 6 24 3 3 -4 46 -8 94 -9 48 -1 107 -6 132 -9 44 -7 92 -11 220 -19 36
-2 90 -7 120 -12 30 -4 66 -8 80 -10 14 -1 25 -3 25 -4 0 -1 26 -3 58 -5 32
-2 74 -6 95 -10 54 -10 102 -16 145 -18 20 -1 37 -5 37 -10 0 -4 4 -6 9 -3 5
3 33 1 62 -4 30 -6 74 -13 99 -16 25 -3 59 -8 75 -11 17 -3 38 -6 48 -7 9 0
17 -3 17 -6 0 -3 20 -5 45 -5 25 0 45 -3 45 -8 0 -4 6 -7 13 -5 10 2 33 -2
122 -18 6 -1 12 -3 15 -4 7 -4 38 -8 85 -14 22 -2 41 -5 43 -6 1 -1 7 -4 12
-5 6 -1 11 -3 13 -5 1 -1 11 -3 22 -4 58 -9 105 -17 133 -25 17 -5 33 -7 36
-3 3 3 6 1 6 -5 0 -5 14 -9 30 -9 17 0 30 4 30 9 0 12 -42 46 -58 47 -7 0 -10
5 -7 10 3 6 0 10 -9 10 -8 0 -16 3 -18 8 -1 4 -30 27 -63 52 -58 44 -67 51
-99 78 -8 6 -18 12 -21 12 -3 0 -11 5 -18 10 -44 37 -61 50 -66 50 -3 0 -22
14 -41 30 -19 16 -41 30 -47 30 -7 0 -13 3 -13 8 0 4 -16 16 -35 26 -19 11
-35 23 -35 28 0 4 -4 8 -10 8 -5 0 -36 17 -67 37 -83 53 -116 73 -135 79 -10
4 -18 10 -18 14 0 4 -18 15 -40 25 -22 10 -40 22 -40 27 0 4 -3 8 -7 7 -14 -2
-53 13 -53 20 0 4 -16 13 -35 20 -19 7 -35 17 -35 22 0 6 -4 8 -9 5 -5 -3 -20
4 -35 15 -14 11 -26 18 -26 15 0 -3 -20 5 -44 19 -24 13 -46 21 -50 18 -3 -4
-6 -2 -6 4 0 6 -10 14 -22 18 -13 4 -25 8 -28 9 -3 1 -35 16 -73 34 -37 17
-71 32 -77 32 -5 0 -29 9 -52 19 -41 19 -77 33 -88 35 -3 1 -11 5 -17 9 -7 5
-13 6 -13 3 0 -3 -20 3 -45 14 -25 11 -45 17 -45 13 0 -3 -6 0 -14 6 -8 6 -18
11 -22 9 -5 -1 -18 3 -29 9 -11 6 -23 11 -27 12 -5 1 -9 1 -10 2 -5 1 -34 7
-60 12 -14 3 -35 10 -46 16 -11 6 -22 8 -25 5 -3 -3 -14 -1 -24 4 -10 5 -34
12 -53 15 -19 3 -42 7 -50 11 -8 3 -33 8 -55 10 -22 3 -65 10 -95 16 -30 6
-77 13 -105 15 -27 2 -72 7 -100 10 -102 12 -332 24 -339 18z"/>
<path d="M6374 5295 c0 -14 4 -25 8 -25 4 0 7 9 5 20 -5 29 -13 33 -13 5z"/>
<path d="M6370 5250 c0 -5 5 -10 11 -10 5 0 7 5 4 10 -3 6 -8 10 -11 10 -2 0
-4 -4 -4 -10z"/>
<path d="M9220 6098 c0 -4 -3 -7 -7 -6 -9 3 -102 -31 -118 -42 -5 -4 -35 -17
-65 -28 -30 -11 -77 -30 -105 -43 -27 -12 -56 -21 -62 -20 -7 1 -13 -2 -13 -7
0 -8 -80 -37 -89 -32 -2 1 -7 -2 -10 -7 -3 -5 -55 -28 -116 -53 -60 -24 -112
-48 -113 -52 -2 -5 -7 -6 -11 -4 -15 10 -87 -41 -102 -71 -9 -18 -20 -29 -24
-25 -4 4 -6 0 -4 -8 1 -8 -20 -62 -48 -120 -28 -58 -53 -115 -57 -127 -4 -13
-11 -23 -15 -23 -4 0 -8 -6 -8 -12 0 -7 -14 -42 -32 -77 -31 -64 -34 -84 -8
-63 8 7 17 9 20 5 4 -3 7 -1 7 6 0 7 4 10 9 7 5 -3 14 1 21 9 7 8 16 15 21 15
8 0 24 12 63 45 6 6 18 11 26 13 8 2 21 10 28 19 6 9 12 13 12 7 0 -5 3 -5 8
1 4 6 36 30 72 55 36 24 112 79 169 122 57 43 108 78 113 78 5 0 6 5 3 10 -6
9 8 14 28 11 4 0 7 5 8 11 0 7 22 29 49 48 58 42 148 121 241 212 38 36 69 64
69 61 0 -3 14 11 30 32 17 21 37 43 46 49 13 10 12 12 -10 12 -14 0 -26 -4
-26 -8z"/>
<path d="M3552 6051 c-15 -9 65 -87 294 -286 13 -11 37 -31 55 -45 18 -14 38
-31 46 -38 7 -7 13 -10 13 -6 0 4 6 1 13 -8 13 -18 179 -138 327 -238 52 -36
97 -67 100 -70 12 -12 52 -31 57 -26 6 6 -67 168 -81 177 -5 4 -5 12 -2 18 4
6 0 14 -9 17 -8 4 -14 11 -13 18 1 6 -8 30 -20 52 -11 23 -18 44 -15 48 4 3 1
6 -6 6 -7 0 -10 4 -7 9 3 5 -1 11 -9 15 -8 3 -12 12 -9 21 3 8 1 15 -4 15 -6
0 -14 9 -17 20 -3 11 -13 20 -21 20 -8 0 -14 5 -14 12 0 6 -3 8 -7 5 -3 -4
-17 0 -30 8 -13 9 -23 13 -23 10 0 -3 -10 0 -22 7 -13 7 -26 11 -30 10 -5 -1
-8 2 -8 8 0 6 -3 9 -7 8 -5 -1 -17 3 -28 9 -11 6 -23 11 -28 12 -4 0 -24 8
-45 17 -20 8 -62 25 -92 36 -30 12 -58 25 -61 31 -4 5 -13 7 -20 5 -8 -3 -20
1 -27 9 -7 7 -22 13 -33 13 -10 0 -19 4 -19 8 0 5 -6 9 -12 9 -7 0 -33 9 -58
20 -45 21 -80 35 -90 37 -3 1 -10 4 -15 8 -6 4 -16 3 -23 -1z"/>
<path d="M4640 11801 c0 -6 4 -13 10 -16 6 -3 7 1 4 9 -7 18 -14 21 -14 7z"/>
<path d="M8130 11765 c-5 -27 -10 -45 -28 -97 -11 -31 -18 -59 -15 -62 11 -10
24 -7 18 4 -4 6 -2 16 3 23 5 7 10 19 10 27 1 18 7 39 16 62 4 9 6 25 3 35 -3
10 -6 14 -7 8z"/>
<path d="M8070 11578 c0 -15 -4 -29 -9 -33 -5 -3 -15 -30 -22 -60 -7 -30 -15
-55 -18 -55 -4 0 -7 -8 -8 -18 -1 -9 -3 -23 -5 -31 -2 -7 3 -16 10 -18 7 -3
12 4 12 17 0 12 5 30 10 40 6 11 12 33 14 51 2 17 8 34 13 38 5 3 9 13 9 21 0
8 4 23 9 33 4 11 3 23 -4 30 -8 8 -11 4 -11 -15z"/>
<path d="M3047 11027 c-3 -8 1 -14 8 -14 7 0 11 6 8 14 -3 7 -6 13 -8 13 -2 0
-5 -6 -8 -13z"/>
<path d="M3078 10974 c9 -13 20 -24 25 -24 4 0 7 -6 7 -12 0 -11 14 -30 60
-85 6 -7 8 -13 4 -13 -4 0 3 -11 16 -25 12 -13 27 -22 31 -19 8 4 -63 104
-113 160 -10 11 -16 23 -13 26 3 3 -3 8 -14 11 -20 5 -20 4 -3 -19z"/>
<path d="M9705 10966 c-10 -13 -18 -28 -18 -32 0 -5 -8 -15 -18 -22 -20 -14
-25 -32 -10 -32 5 0 23 23 41 51 33 54 36 77 5 35z"/>
<path d="M7102 10855 c4 -4 3 -14 -4 -22 -8 -10 -8 -17 0 -25 7 -7 12 -8 13
-2 0 5 2 17 4 26 2 10 -2 21 -8 25 -7 3 -9 3 -5 -2z"/>
<path d="M1795 9760 c3 -5 8 -10 11 -10 2 0 4 5 4 10 0 6 -5 10 -11 10 -5 0
-7 -4 -4 -10z"/>
<path d="M1820 9740 c0 -5 5 -10 10 -10 12 0 32 -15 58 -42 9 -10 22 -18 29
-18 7 0 18 -9 25 -20 12 -18 38 -28 38 -15 0 8 -54 54 -63 55 -5 0 -14 6 -22
13 -41 39 -75 56 -75 37z"/>
<path d="M10415 8461 c-3 -5 -2 -12 3 -15 5 -3 9 1 9 9 0 17 -3 19 -12 6z"/>
<path d="M1000 8171 c0 -6 5 -12 10 -12 13 -2 29 -6 33 -9 7 -5 38 -7 32 -2
-4 4 -11 8 -16 8 -5 1 -11 3 -14 4 -3 1 -8 3 -12 4 -5 1 -14 5 -20 9 -8 5 -13
4 -13 -2z"/>
<path d="M11725 8133 c-11 -3 -25 -10 -32 -15 -7 -5 -17 -7 -23 -3 -5 3 -10 1
-10 -4 0 -14 27 -14 35 -1 3 5 12 7 19 4 7 -3 19 2 26 11 7 8 11 14 9 14 -2
-1 -13 -4 -24 -6z"/>
<path d="M2015 7109 c-5 -8 88 -25 118 -21 9 1 17 -3 17 -8 0 -6 5 -10 10 -10
6 0 10 7 10 15 0 11 -12 15 -40 16 -38 1 -57 4 -62 9 -8 6 -50 6 -53 -1z"/>
<path d="M10764 7102 c4 -7 1 -12 -8 -12 -8 0 -17 -4 -20 -8 -2 -4 4 -8 14 -8
22 0 34 22 18 32 -7 4 -8 3 -4 -4z"/>
<path d="M10795 7090 c-3 -5 -1 -10 4 -10 6 0 11 5 11 10 0 6 -2 10 -4 10 -3
0 -8 -4 -11 -10z"/>
<path d="M790 6419 c0 -5 5 -7 10 -4 6 3 10 8 10 11 0 2 -4 4 -10 4 -5 0 -10
-5 -10 -11z"/>
<path d="M825 6420 c3 -5 10 -10 16 -10 5 0 9 5 9 10 0 6 -7 10 -16 10 -8 0
-12 -4 -9 -10z"/>
<path d="M865 6420 c3 -5 8 -10 11 -10 2 0 4 5 4 10 0 6 -5 10 -11 10 -5 0 -7
-4 -4 -10z"/>
<path d="M890 6420 c0 -5 9 -10 20 -10 11 0 20 5 20 10 0 6 -9 10 -20 10 -11
0 -20 -4 -20 -10z"/>
<path d="M11950 6400 c0 -5 5 -10 11 -10 5 0 7 5 4 10 -3 6 -8 10 -11 10 -2 0
-4 -4 -4 -10z"/>
<path d="M1960 5721 c0 -7 -5 -9 -12 -5 -7 5 -8 3 -3 -5 5 -9 10 -10 18 -2 6
6 8 14 4 18 -4 3 -7 1 -7 -6z"/>
<path d="M1986 5722 c-2 -4 4 -8 15 -8 10 0 19 4 19 8 0 4 -6 8 -14 8 -8 0
-17 -4 -20 -8z"/>
<path d="M1170 4720 c0 -5 5 -10 10 -10 6 0 10 5 10 10 0 6 -4 10 -10 10 -5 0
-10 -4 -10 -10z"/>
<path d="M1120 4708 c0 -4 9 -8 20 -8 11 0 20 4 20 8 0 4 -9 8 -20 8 -11 0
-20 -4 -20 -8z"/>
<path d="M1100 4699 c0 -5 -6 -7 -12 -3 -7 4 -9 3 -5 -1 13 -15 36 -14 30 1
-6 17 -13 18 -13 3z"/>
<path d="M11700 4682 c0 -6 9 -12 20 -15 11 -3 20 -3 20 -1 0 2 -9 8 -20 14
-11 6 -20 7 -20 2z"/>
<path d="M2413 4401 c-13 -11 -23 -22 -23 -24 0 -8 59 23 65 34 11 16 -19 9
-42 -10z"/>
<path d="M6336 3766 c-24 -25 -60 -87 -58 -98 1 -5 -2 -8 -7 -8 -5 0 -13 -10
-17 -22 -3 -13 -15 -35 -25 -49 -10 -14 -21 -37 -24 -52 -4 -15 -11 -24 -16
-21 -5 3 -9 -3 -9 -14 0 -11 -9 -31 -21 -46 -11 -14 -18 -26 -14 -26 4 0 -3
-16 -15 -35 -12 -19 -18 -35 -13 -35 4 0 3 -4 -3 -8 -12 -8 -84 -171 -84 -190
0 -7 -3 -12 -8 -12 -6 0 -25 -45 -36 -90 -2 -8 -14 -37 -25 -63 -12 -27 -19
-53 -15 -58 3 -5 -1 -11 -8 -14 -8 -3 -15 -13 -16 -23 -1 -9 -3 -26 -4 -37 -2
-11 -9 -26 -16 -33 -7 -8 -10 -18 -7 -23 4 -5 2 -9 -2 -9 -5 0 -9 -8 -9 -17
-2 -28 -12 -71 -21 -85 -4 -7 -8 -17 -9 -23 -4 -22 -14 -63 -28 -112 -18 -63
-28 -112 -27 -135 0 -10 -5 -18 -10 -18 -6 0 -7 -5 -3 -11 4 -6 7 -43 7 -81 0
-38 3 -71 7 -73 4 -3 6 -16 5 -30 -2 -14 1 -25 7 -25 5 0 6 -9 3 -20 -3 -11
-3 -20 2 -20 4 0 14 -18 21 -40 14 -48 78 -146 98 -154 8 -3 14 -12 14 -21 0
-8 3 -15 8 -15 4 0 19 -10 33 -22 33 -30 57 -46 92 -61 15 -6 27 -15 27 -20 0
-4 4 -6 9 -2 5 3 12 1 16 -5 3 -5 15 -15 27 -21 16 -9 19 -8 12 3 -6 11 -5 11
9 -1 9 -7 17 -11 17 -8 0 3 15 0 33 -7 17 -7 39 -12 47 -11 8 1 21 -3 28 -8 8
-6 12 -5 12 2 0 8 6 9 18 3 18 -9 58 -8 105 2 66 14 83 18 95 18 6 1 12 6 12
11 0 6 3 7 7 4 3 -4 17 0 30 8 13 9 23 13 23 9 0 -3 11 1 25 10 14 9 25 14 25
11 0 -5 12 4 45 33 7 6 19 12 25 12 6 0 8 5 5 10 -3 6 -2 10 2 10 11 0 86 70
76 70 -5 0 -1 6 8 13 39 29 95 157 115 258 7 39 10 169 3 169 -3 0 -6 18 -7
40 -2 22 -12 75 -23 117 -11 43 -22 90 -24 104 -3 14 -12 45 -20 69 -8 23 -15
48 -15 56 0 7 -5 25 -12 41 -12 29 -17 48 -22 73 -2 8 -9 29 -16 45 -6 17 -13
35 -14 40 -1 6 -7 24 -13 40 -6 17 -15 39 -19 50 -4 11 -8 22 -9 25 -6 16 -19
49 -31 77 -8 17 -14 34 -14 37 0 3 -16 41 -36 83 -20 43 -36 83 -37 88 -1 6
-4 12 -7 15 -9 9 -44 85 -42 93 1 4 -2 7 -6 7 -5 0 -19 21 -32 48 -13 26 -30
53 -37 60 -7 7 -13 19 -13 26 0 7 -8 21 -17 32 -20 23 -40 52 -50 74 -19 41
-56 48 -87 16z m-286 -1067 c0 -5 -1 -10 -2 -11 -1 -2 5 -14 12 -28 8 -14 15
-27 15 -30 0 -3 6 -15 13 -27 7 -13 11 -23 8 -23 -5 0 14 -36 75 -147 12 -24
27 -43 31 -43 5 0 6 -4 3 -10 -3 -5 -1 -10 5 -10 6 0 14 -8 17 -17 9 -24 16
-32 105 -124 42 -43 81 -79 87 -79 6 0 11 -7 11 -16 0 -8 5 -12 10 -9 6 3 10
1 10 -4 0 -6 7 -11 15 -11 8 0 15 -3 15 -8 0 -4 18 -18 39 -31 34 -21 37 -27
28 -43 -10 -15 -69 -51 -87 -53 -3 0 -11 -4 -18 -9 -37 -23 -256 -10 -273 17
-3 5 -9 8 -13 8 -3 -1 -10 -1 -16 -1 -16 0 -161 150 -155 161 4 5 2 9 -3 9 -9
0 -20 26 -18 41 1 3 -5 13 -12 22 -8 9 -11 21 -8 26 4 5 2 12 -3 16 -9 5 -8
111 2 145 2 8 7 36 12 63 4 26 12 47 17 47 5 0 6 5 3 10 -3 6 -3 16 1 22 5 7
9 19 9 28 1 8 10 43 20 77 12 44 21 60 31 56 8 -3 14 -9 14 -14z"/>
<path d="M10816 3171 c-5 -7 -6 -13 -5 -15 2 -1 22 -13 44 -26 22 -14 46 -30
54 -38 7 -7 16 -10 20 -7 3 4 -3 13 -14 21 -11 8 -28 21 -38 29 -9 8 -20 15
-24 15 -3 0 -11 7 -18 17 -9 12 -14 13 -19 4z"/>
<path d="M10955 3060 c-3 -5 -1 -10 4 -10 6 0 11 5 11 10 0 6 -2 10 -4 10 -3
0 -8 -4 -11 -10z"/>
<path d="M5786 2723 c-6 -14 -5 -15 5 -6 7 7 10 15 7 18 -3 3 -9 -2 -12 -12z"/>
<path d="M4354 2446 c-3 -8 -7 -21 -8 -29 -1 -8 -8 -23 -16 -33 -14 -18 -13
-18 8 0 12 11 20 21 18 24 -3 2 1 11 9 19 8 8 15 19 15 24 0 14 -20 11 -26 -5z"/>
<path d="M5709 2188 c-1 -4 -7 -34 -13 -68 -2 -14 -5 -26 -7 -27 -6 -8 -3 -83
4 -83 4 0 7 8 8 18 0 9 2 35 5 57 3 22 6 51 7 65 1 14 6 28 12 32 6 5 5 8 -2
8 -7 0 -13 -1 -14 -2z"/>
<path d="M6379 1668 c-5 -16 -3 -92 3 -101 4 -6 1 -18 -5 -26 -10 -12 -9 -13
3 -6 12 7 13 6 4 -6 -12 -16 -12 -29 -1 -46 5 -8 4 -13 -2 -13 -12 0 -10 -27
2 -47 5 -7 4 -13 0 -13 -5 0 -8 -85 -8 -190 0 -105 4 -190 8 -190 5 0 5 -6 0
-12 -12 -19 -10 -95 2 -95 14 0 14 39 0 49 -7 5 -6 8 0 8 6 0 10 19 9 45 -1
31 2 43 10 38 7 -4 6 -1 -2 9 -8 11 -11 44 -8 114 3 54 5 101 6 104 1 3 1 10
0 15 -6 25 -5 82 2 103 4 12 4 22 -1 22 -6 0 -6 89 0 127 5 31 -3 113 -11 113
-5 0 -10 -1 -11 -2z"/>
<path d="M8080 1120 c0 -5 5 -10 10 -10 6 0 10 -9 10 -20 0 -11 5 -20 10 -20
13 0 13 3 -2 35 -11 25 -28 34 -28 15z"/>
<path d="M6375 900 c3 -5 11 -10 16 -10 6 0 7 5 4 10 -3 6 -11 10 -16 10 -6 0
-7 -4 -4 -10z"/>
</g>
</svg>
